%TF.GenerationSoftware,KiCad,Pcbnew,6.0.5-a6ca702e91~116~ubuntu20.04.1*%
%TF.CreationDate,2022-06-08T10:32:40+02:00*%
%TF.ProjectId,mini-pcb-3-to-5V-booster,6d696e69-2d70-4636-922d-332d746f2d35,rev?*%
%TF.SameCoordinates,Original*%
%TF.FileFunction,Copper,L2,Bot*%
%TF.FilePolarity,Positive*%
%FSLAX46Y46*%
G04 Gerber Fmt 4.6, Leading zero omitted, Abs format (unit mm)*
G04 Created by KiCad (PCBNEW 6.0.5-a6ca702e91~116~ubuntu20.04.1) date 2022-06-08 10:32:40*
%MOMM*%
%LPD*%
G01*
G04 APERTURE LIST*
%TA.AperFunction,ComponentPad*%
%ADD10R,1.700000X1.700000*%
%TD*%
%TA.AperFunction,ComponentPad*%
%ADD11O,1.700000X1.700000*%
%TD*%
%TA.AperFunction,ViaPad*%
%ADD12C,0.800000*%
%TD*%
%TA.AperFunction,Conductor*%
%ADD13C,0.600000*%
%TD*%
G04 APERTURE END LIST*
D10*
%TO.P,J1,1,Pin_1*%
%TO.N,BAT+*%
X94275000Y-71825000D03*
D11*
%TO.P,J1,2,Pin_2*%
%TO.N,GND*%
X94275000Y-74365000D03*
%TD*%
D10*
%TO.P,J2,1,Pin_1*%
%TO.N,VBUS*%
X115175000Y-71825000D03*
D11*
%TO.P,J2,2,Pin_2*%
%TO.N,GND*%
X115175000Y-74365000D03*
%TD*%
D12*
%TO.N,VBUS*%
X102200000Y-72950000D03*
%TO.N,GND*%
X110225000Y-72800000D03*
X106700000Y-76450000D03*
X99275000Y-75150000D03*
X110875000Y-78450000D03*
%TD*%
D13*
%TO.N,VBUS*%
X102200000Y-72950000D02*
X108250000Y-72950000D01*
X109500000Y-74200000D02*
X111300000Y-74200000D01*
X108250000Y-72950000D02*
X109500000Y-74200000D01*
X111300000Y-74200000D02*
X113675000Y-71825000D01*
X113675000Y-71825000D02*
X115175000Y-71825000D01*
%TD*%
%TA.AperFunction,Conductor*%
%TO.N,GND*%
G36*
X116683621Y-66453502D02*
G01*
X116730114Y-66507158D01*
X116741500Y-66559500D01*
X116741500Y-70742491D01*
X116721498Y-70810612D01*
X116667842Y-70857105D01*
X116597568Y-70867209D01*
X116532988Y-70837715D01*
X116497518Y-70786721D01*
X116478767Y-70736703D01*
X116475615Y-70728295D01*
X116388261Y-70611739D01*
X116271705Y-70524385D01*
X116135316Y-70473255D01*
X116073134Y-70466500D01*
X114276866Y-70466500D01*
X114214684Y-70473255D01*
X114078295Y-70524385D01*
X113961739Y-70611739D01*
X113874385Y-70728295D01*
X113823255Y-70864684D01*
X113822402Y-70872540D01*
X113818972Y-70904108D01*
X113791730Y-70969670D01*
X113733366Y-71010096D01*
X113693709Y-71016500D01*
X113684165Y-71016500D01*
X113682846Y-71016493D01*
X113592779Y-71015550D01*
X113585901Y-71017037D01*
X113585891Y-71017038D01*
X113550413Y-71024709D01*
X113537838Y-71026769D01*
X113494745Y-71031603D01*
X113463074Y-71042632D01*
X113448265Y-71046795D01*
X113422371Y-71052393D01*
X113422368Y-71052394D01*
X113415490Y-71053881D01*
X113376187Y-71072208D01*
X113364411Y-71076990D01*
X113323448Y-71091255D01*
X113317473Y-71094989D01*
X113317470Y-71094990D01*
X113295005Y-71109027D01*
X113281488Y-71116366D01*
X113257481Y-71127561D01*
X113257477Y-71127563D01*
X113251098Y-71130538D01*
X113223184Y-71152190D01*
X113216844Y-71157108D01*
X113206395Y-71164397D01*
X113169624Y-71187374D01*
X113164625Y-71192339D01*
X113164623Y-71192340D01*
X113140815Y-71215983D01*
X113140192Y-71216566D01*
X113139530Y-71217079D01*
X113113682Y-71242927D01*
X113040918Y-71315185D01*
X113040259Y-71316223D01*
X113039153Y-71317456D01*
X111002013Y-73354595D01*
X110939701Y-73388621D01*
X110912918Y-73391500D01*
X109887082Y-73391500D01*
X109818961Y-73371498D01*
X109797987Y-73354595D01*
X108828234Y-72384842D01*
X108827306Y-72383905D01*
X108769157Y-72324525D01*
X108769156Y-72324524D01*
X108764229Y-72319493D01*
X108727779Y-72296002D01*
X108717454Y-72288583D01*
X108683557Y-72261524D01*
X108653362Y-72246927D01*
X108639945Y-72239398D01*
X108611762Y-72221235D01*
X108605145Y-72218827D01*
X108605140Y-72218824D01*
X108571027Y-72206408D01*
X108559284Y-72201447D01*
X108526597Y-72185646D01*
X108526592Y-72185644D01*
X108520251Y-72182579D01*
X108513393Y-72180996D01*
X108513391Y-72180995D01*
X108487574Y-72175035D01*
X108472831Y-72170668D01*
X108441315Y-72159197D01*
X108434325Y-72158314D01*
X108434317Y-72158312D01*
X108398299Y-72153762D01*
X108385747Y-72151526D01*
X108350386Y-72143362D01*
X108350383Y-72143362D01*
X108343515Y-72141776D01*
X108336469Y-72141751D01*
X108336466Y-72141751D01*
X108302944Y-72141634D01*
X108302062Y-72141605D01*
X108301231Y-72141500D01*
X108264581Y-72141500D01*
X108264141Y-72141499D01*
X108165657Y-72141155D01*
X108165652Y-72141155D01*
X108162130Y-72141143D01*
X108160930Y-72141411D01*
X108159293Y-72141500D01*
X102644494Y-72141500D01*
X102593245Y-72130607D01*
X102488319Y-72083891D01*
X102488318Y-72083891D01*
X102482288Y-72081206D01*
X102388887Y-72061353D01*
X102301944Y-72042872D01*
X102301939Y-72042872D01*
X102295487Y-72041500D01*
X102104513Y-72041500D01*
X102098061Y-72042872D01*
X102098056Y-72042872D01*
X102011113Y-72061353D01*
X101917712Y-72081206D01*
X101911682Y-72083891D01*
X101911681Y-72083891D01*
X101749278Y-72156197D01*
X101749276Y-72156198D01*
X101743248Y-72158882D01*
X101737907Y-72162762D01*
X101737906Y-72162763D01*
X101721015Y-72175035D01*
X101588747Y-72271134D01*
X101584326Y-72276044D01*
X101584325Y-72276045D01*
X101487208Y-72383905D01*
X101460960Y-72413056D01*
X101365473Y-72578444D01*
X101306458Y-72760072D01*
X101286496Y-72950000D01*
X101287186Y-72956565D01*
X101304954Y-73125615D01*
X101306458Y-73139928D01*
X101365473Y-73321556D01*
X101460960Y-73486944D01*
X101588747Y-73628866D01*
X101743248Y-73741118D01*
X101749276Y-73743802D01*
X101749278Y-73743803D01*
X101827214Y-73778502D01*
X101917712Y-73818794D01*
X101997549Y-73835764D01*
X102098056Y-73857128D01*
X102098061Y-73857128D01*
X102104513Y-73858500D01*
X102295487Y-73858500D01*
X102301939Y-73857128D01*
X102301944Y-73857128D01*
X102402451Y-73835764D01*
X102482288Y-73818794D01*
X102593245Y-73769393D01*
X102644494Y-73758500D01*
X107862918Y-73758500D01*
X107931039Y-73778502D01*
X107952013Y-73795405D01*
X108921766Y-74765158D01*
X108922694Y-74766095D01*
X108962021Y-74806254D01*
X108985771Y-74830507D01*
X109022221Y-74853998D01*
X109032546Y-74861417D01*
X109066443Y-74888476D01*
X109072784Y-74891541D01*
X109072785Y-74891542D01*
X109096637Y-74903072D01*
X109110054Y-74910601D01*
X109138238Y-74928765D01*
X109144855Y-74931173D01*
X109144860Y-74931176D01*
X109178973Y-74943592D01*
X109190716Y-74948553D01*
X109223403Y-74964354D01*
X109223408Y-74964356D01*
X109229749Y-74967421D01*
X109236607Y-74969004D01*
X109236609Y-74969005D01*
X109262426Y-74974965D01*
X109277169Y-74979332D01*
X109308685Y-74990803D01*
X109315675Y-74991686D01*
X109315683Y-74991688D01*
X109351701Y-74996238D01*
X109364253Y-74998474D01*
X109399614Y-75006638D01*
X109399617Y-75006638D01*
X109406485Y-75008224D01*
X109413531Y-75008249D01*
X109413534Y-75008249D01*
X109447056Y-75008366D01*
X109447938Y-75008395D01*
X109448769Y-75008500D01*
X109485419Y-75008500D01*
X109485859Y-75008501D01*
X109584343Y-75008845D01*
X109584348Y-75008845D01*
X109587870Y-75008857D01*
X109589070Y-75008589D01*
X109590707Y-75008500D01*
X111290786Y-75008500D01*
X111292106Y-75008507D01*
X111382221Y-75009451D01*
X111424597Y-75000289D01*
X111437163Y-74998231D01*
X111480255Y-74993397D01*
X111486906Y-74991081D01*
X111486910Y-74991080D01*
X111511930Y-74982367D01*
X111526742Y-74978204D01*
X111552619Y-74972609D01*
X111559510Y-74971119D01*
X111598813Y-74952792D01*
X111610589Y-74948010D01*
X111651552Y-74933745D01*
X111657527Y-74930011D01*
X111657530Y-74930010D01*
X111679995Y-74915973D01*
X111693512Y-74908634D01*
X111717514Y-74897441D01*
X111717515Y-74897440D01*
X111723902Y-74894462D01*
X111735767Y-74885259D01*
X111758153Y-74867894D01*
X111768612Y-74860598D01*
X111799404Y-74841358D01*
X111799407Y-74841356D01*
X111805376Y-74837626D01*
X111834179Y-74809024D01*
X111834804Y-74808439D01*
X111835470Y-74807922D01*
X111861460Y-74781932D01*
X111934082Y-74709815D01*
X111934740Y-74708778D01*
X111935843Y-74707549D01*
X112010426Y-74632966D01*
X113843257Y-74632966D01*
X113873565Y-74767446D01*
X113876645Y-74777275D01*
X113956770Y-74974603D01*
X113961413Y-74983794D01*
X114072694Y-75165388D01*
X114078777Y-75173699D01*
X114218213Y-75334667D01*
X114225580Y-75341883D01*
X114389434Y-75477916D01*
X114397881Y-75483831D01*
X114581756Y-75591279D01*
X114591042Y-75595729D01*
X114790001Y-75671703D01*
X114799899Y-75674579D01*
X114903250Y-75695606D01*
X114917299Y-75694410D01*
X114921000Y-75684065D01*
X114921000Y-74637115D01*
X114916525Y-74621876D01*
X114915135Y-74620671D01*
X114907452Y-74619000D01*
X113858225Y-74619000D01*
X113844694Y-74622973D01*
X113843257Y-74632966D01*
X112010426Y-74632966D01*
X113706206Y-72937186D01*
X113768518Y-72903160D01*
X113839333Y-72908225D01*
X113896127Y-72950715D01*
X113961739Y-73038261D01*
X114078295Y-73125615D01*
X114086704Y-73128767D01*
X114086705Y-73128768D01*
X114195960Y-73169726D01*
X114252725Y-73212367D01*
X114277425Y-73278929D01*
X114262218Y-73348278D01*
X114242825Y-73374759D01*
X114119590Y-73503717D01*
X114113104Y-73511727D01*
X113993098Y-73687649D01*
X113988000Y-73696623D01*
X113898338Y-73889783D01*
X113894775Y-73899470D01*
X113839389Y-74099183D01*
X113840912Y-74107607D01*
X113853292Y-74111000D01*
X115303000Y-74111000D01*
X115371121Y-74131002D01*
X115417614Y-74184658D01*
X115429000Y-74237000D01*
X115429000Y-75683517D01*
X115433064Y-75697359D01*
X115446478Y-75699393D01*
X115453184Y-75698534D01*
X115463262Y-75696392D01*
X115667255Y-75635191D01*
X115676842Y-75631433D01*
X115868095Y-75537739D01*
X115876945Y-75532464D01*
X116050328Y-75408792D01*
X116058200Y-75402139D01*
X116209052Y-75251812D01*
X116215730Y-75243965D01*
X116340003Y-75071020D01*
X116345313Y-75062183D01*
X116439670Y-74871267D01*
X116443465Y-74861683D01*
X116494941Y-74692255D01*
X116533883Y-74632891D01*
X116598737Y-74604004D01*
X116668913Y-74614765D01*
X116722131Y-74661759D01*
X116741500Y-74728884D01*
X116741500Y-79965500D01*
X116721498Y-80033621D01*
X116667842Y-80080114D01*
X116615500Y-80091500D01*
X92884500Y-80091500D01*
X92816379Y-80071498D01*
X92769886Y-80017842D01*
X92758500Y-79965500D01*
X92758500Y-74885259D01*
X92778502Y-74817138D01*
X92832158Y-74770645D01*
X92902432Y-74760541D01*
X92967012Y-74790035D01*
X93001243Y-74837855D01*
X93056770Y-74974603D01*
X93061413Y-74983794D01*
X93172694Y-75165388D01*
X93178777Y-75173699D01*
X93318213Y-75334667D01*
X93325580Y-75341883D01*
X93489434Y-75477916D01*
X93497881Y-75483831D01*
X93681756Y-75591279D01*
X93691042Y-75595729D01*
X93890001Y-75671703D01*
X93899899Y-75674579D01*
X94003250Y-75695606D01*
X94017299Y-75694410D01*
X94021000Y-75684065D01*
X94021000Y-75683517D01*
X94529000Y-75683517D01*
X94533064Y-75697359D01*
X94546478Y-75699393D01*
X94553184Y-75698534D01*
X94563262Y-75696392D01*
X94767255Y-75635191D01*
X94776842Y-75631433D01*
X94968095Y-75537739D01*
X94976945Y-75532464D01*
X95150328Y-75408792D01*
X95158200Y-75402139D01*
X95309052Y-75251812D01*
X95315730Y-75243965D01*
X95440003Y-75071020D01*
X95445313Y-75062183D01*
X95539670Y-74871267D01*
X95543469Y-74861672D01*
X95605377Y-74657910D01*
X95607555Y-74647837D01*
X95608986Y-74636962D01*
X95606775Y-74622778D01*
X95593617Y-74619000D01*
X94547115Y-74619000D01*
X94531876Y-74623475D01*
X94530671Y-74624865D01*
X94529000Y-74632548D01*
X94529000Y-75683517D01*
X94021000Y-75683517D01*
X94021000Y-74237000D01*
X94041002Y-74168879D01*
X94094658Y-74122386D01*
X94147000Y-74111000D01*
X95593344Y-74111000D01*
X95606875Y-74107027D01*
X95608180Y-74097947D01*
X95566214Y-73930875D01*
X95562894Y-73921124D01*
X95477972Y-73725814D01*
X95473105Y-73716739D01*
X95357426Y-73537926D01*
X95351136Y-73529757D01*
X95207293Y-73371677D01*
X95176241Y-73307831D01*
X95184635Y-73237333D01*
X95229812Y-73182564D01*
X95256256Y-73168895D01*
X95363297Y-73128767D01*
X95371705Y-73125615D01*
X95488261Y-73038261D01*
X95575615Y-72921705D01*
X95626745Y-72785316D01*
X95633500Y-72723134D01*
X95633500Y-70926866D01*
X95626745Y-70864684D01*
X95575615Y-70728295D01*
X95488261Y-70611739D01*
X95371705Y-70524385D01*
X95235316Y-70473255D01*
X95173134Y-70466500D01*
X93376866Y-70466500D01*
X93314684Y-70473255D01*
X93178295Y-70524385D01*
X93061739Y-70611739D01*
X93056358Y-70618919D01*
X93056357Y-70618920D01*
X92985326Y-70713696D01*
X92928467Y-70756211D01*
X92857648Y-70761237D01*
X92795355Y-70727177D01*
X92761365Y-70664845D01*
X92758500Y-70638131D01*
X92758500Y-66559500D01*
X92778502Y-66491379D01*
X92832158Y-66444886D01*
X92884500Y-66433500D01*
X116615500Y-66433500D01*
X116683621Y-66453502D01*
G37*
%TD.AperFunction*%
%TD*%
M02*
