%TF.GenerationSoftware,KiCad,Pcbnew,6.0.5-a6ca702e91~116~ubuntu20.04.1*%
%TF.CreationDate,2022-06-08T10:32:40+02:00*%
%TF.ProjectId,mini-pcb-3-to-5V-booster,6d696e69-2d70-4636-922d-332d746f2d35,rev?*%
%TF.SameCoordinates,Original*%
%TF.FileFunction,Legend,Top*%
%TF.FilePolarity,Positive*%
%FSLAX46Y46*%
G04 Gerber Fmt 4.6, Leading zero omitted, Abs format (unit mm)*
G04 Created by KiCad (PCBNEW 6.0.5-a6ca702e91~116~ubuntu20.04.1) date 2022-06-08 10:32:40*
%MOMM*%
%LPD*%
G01*
G04 APERTURE LIST*
%ADD10C,0.150000*%
%ADD11C,0.130000*%
%ADD12C,0.140000*%
%ADD13C,0.120000*%
G04 APERTURE END LIST*
D10*
X93835595Y-77677380D02*
X93835595Y-76677380D01*
X94311785Y-77677380D02*
X94311785Y-76677380D01*
X94883214Y-77677380D01*
X94883214Y-76677380D01*
D11*
X112439309Y-71386904D02*
X112058357Y-71386904D01*
X112020261Y-71767857D01*
X112058357Y-71729761D01*
X112134547Y-71691666D01*
X112325023Y-71691666D01*
X112401214Y-71729761D01*
X112439309Y-71767857D01*
X112477404Y-71844047D01*
X112477404Y-72034523D01*
X112439309Y-72110714D01*
X112401214Y-72148809D01*
X112325023Y-72186904D01*
X112134547Y-72186904D01*
X112058357Y-72148809D01*
X112020261Y-72110714D01*
X112705976Y-71386904D02*
X112972642Y-72186904D01*
X113239309Y-71386904D01*
D10*
X114198928Y-76402380D02*
X114389404Y-76402380D01*
X114484642Y-76450000D01*
X114579880Y-76545238D01*
X114627500Y-76735714D01*
X114627500Y-77069047D01*
X114579880Y-77259523D01*
X114484642Y-77354761D01*
X114389404Y-77402380D01*
X114198928Y-77402380D01*
X114103690Y-77354761D01*
X114008452Y-77259523D01*
X113960833Y-77069047D01*
X113960833Y-76735714D01*
X114008452Y-76545238D01*
X114103690Y-76450000D01*
X114198928Y-76402380D01*
X115056071Y-76402380D02*
X115056071Y-77211904D01*
X115103690Y-77307142D01*
X115151309Y-77354761D01*
X115246547Y-77402380D01*
X115437023Y-77402380D01*
X115532261Y-77354761D01*
X115579880Y-77307142D01*
X115627500Y-77211904D01*
X115627500Y-76402380D01*
X115960833Y-76402380D02*
X116532261Y-76402380D01*
X116246547Y-77402380D02*
X116246547Y-76402380D01*
D11*
X111461928Y-74100000D02*
X111385738Y-74061904D01*
X111271452Y-74061904D01*
X111157166Y-74100000D01*
X111080976Y-74176190D01*
X111042880Y-74252380D01*
X111004785Y-74404761D01*
X111004785Y-74519047D01*
X111042880Y-74671428D01*
X111080976Y-74747619D01*
X111157166Y-74823809D01*
X111271452Y-74861904D01*
X111347642Y-74861904D01*
X111461928Y-74823809D01*
X111500023Y-74785714D01*
X111500023Y-74519047D01*
X111347642Y-74519047D01*
X111842880Y-74861904D02*
X111842880Y-74061904D01*
X112300023Y-74861904D01*
X112300023Y-74061904D01*
X112680976Y-74861904D02*
X112680976Y-74061904D01*
X112871452Y-74061904D01*
X112985738Y-74100000D01*
X113061928Y-74176190D01*
X113100023Y-74252380D01*
X113138119Y-74404761D01*
X113138119Y-74519047D01*
X113100023Y-74671428D01*
X113061928Y-74747619D01*
X112985738Y-74823809D01*
X112871452Y-74861904D01*
X112680976Y-74861904D01*
X96736928Y-73950000D02*
X96660738Y-73911904D01*
X96546452Y-73911904D01*
X96432166Y-73950000D01*
X96355976Y-74026190D01*
X96317880Y-74102380D01*
X96279785Y-74254761D01*
X96279785Y-74369047D01*
X96317880Y-74521428D01*
X96355976Y-74597619D01*
X96432166Y-74673809D01*
X96546452Y-74711904D01*
X96622642Y-74711904D01*
X96736928Y-74673809D01*
X96775023Y-74635714D01*
X96775023Y-74369047D01*
X96622642Y-74369047D01*
X97117880Y-74711904D02*
X97117880Y-73911904D01*
X97575023Y-74711904D01*
X97575023Y-73911904D01*
X97955976Y-74711904D02*
X97955976Y-73911904D01*
X98146452Y-73911904D01*
X98260738Y-73950000D01*
X98336928Y-74026190D01*
X98375023Y-74102380D01*
X98413119Y-74254761D01*
X98413119Y-74369047D01*
X98375023Y-74521428D01*
X98336928Y-74597619D01*
X98260738Y-74673809D01*
X98146452Y-74711904D01*
X97955976Y-74711904D01*
D12*
X93684285Y-79336904D02*
X94179523Y-79336904D01*
X93912856Y-79641666D01*
X94027142Y-79641666D01*
X94103332Y-79679761D01*
X94141428Y-79717857D01*
X94179523Y-79794047D01*
X94179523Y-79984523D01*
X94141428Y-80060714D01*
X94103332Y-80098809D01*
X94027142Y-80136904D01*
X93798570Y-80136904D01*
X93722380Y-80098809D01*
X93684285Y-80060714D01*
X95017618Y-79603571D02*
X95322380Y-79603571D01*
X95131904Y-79336904D02*
X95131904Y-80022619D01*
X95169999Y-80098809D01*
X95246189Y-80136904D01*
X95322380Y-80136904D01*
X95703332Y-80136904D02*
X95627142Y-80098809D01*
X95589047Y-80060714D01*
X95550951Y-79984523D01*
X95550951Y-79755952D01*
X95589047Y-79679761D01*
X95627142Y-79641666D01*
X95703332Y-79603571D01*
X95817618Y-79603571D01*
X95893808Y-79641666D01*
X95931904Y-79679761D01*
X95969999Y-79755952D01*
X95969999Y-79984523D01*
X95931904Y-80060714D01*
X95893808Y-80098809D01*
X95817618Y-80136904D01*
X95703332Y-80136904D01*
X97303332Y-79336904D02*
X96922380Y-79336904D01*
X96884285Y-79717857D01*
X96922380Y-79679761D01*
X96998570Y-79641666D01*
X97189047Y-79641666D01*
X97265237Y-79679761D01*
X97303332Y-79717857D01*
X97341428Y-79794047D01*
X97341428Y-79984523D01*
X97303332Y-80060714D01*
X97265237Y-80098809D01*
X97189047Y-80136904D01*
X96998570Y-80136904D01*
X96922380Y-80098809D01*
X96884285Y-80060714D01*
X97569999Y-79336904D02*
X97836666Y-80136904D01*
X98103332Y-79336904D01*
X99246189Y-79717857D02*
X99360475Y-79755952D01*
X99398570Y-79794047D01*
X99436666Y-79870238D01*
X99436666Y-79984523D01*
X99398570Y-80060714D01*
X99360475Y-80098809D01*
X99284285Y-80136904D01*
X98979523Y-80136904D01*
X98979523Y-79336904D01*
X99246189Y-79336904D01*
X99322380Y-79375000D01*
X99360475Y-79413095D01*
X99398570Y-79489285D01*
X99398570Y-79565476D01*
X99360475Y-79641666D01*
X99322380Y-79679761D01*
X99246189Y-79717857D01*
X98979523Y-79717857D01*
X99893808Y-80136904D02*
X99817618Y-80098809D01*
X99779523Y-80060714D01*
X99741428Y-79984523D01*
X99741428Y-79755952D01*
X99779523Y-79679761D01*
X99817618Y-79641666D01*
X99893808Y-79603571D01*
X100008094Y-79603571D01*
X100084285Y-79641666D01*
X100122380Y-79679761D01*
X100160475Y-79755952D01*
X100160475Y-79984523D01*
X100122380Y-80060714D01*
X100084285Y-80098809D01*
X100008094Y-80136904D01*
X99893808Y-80136904D01*
X100617618Y-80136904D02*
X100541428Y-80098809D01*
X100503332Y-80060714D01*
X100465237Y-79984523D01*
X100465237Y-79755952D01*
X100503332Y-79679761D01*
X100541428Y-79641666D01*
X100617618Y-79603571D01*
X100731904Y-79603571D01*
X100808094Y-79641666D01*
X100846189Y-79679761D01*
X100884285Y-79755952D01*
X100884285Y-79984523D01*
X100846189Y-80060714D01*
X100808094Y-80098809D01*
X100731904Y-80136904D01*
X100617618Y-80136904D01*
X101189047Y-80098809D02*
X101265237Y-80136904D01*
X101417618Y-80136904D01*
X101493808Y-80098809D01*
X101531904Y-80022619D01*
X101531904Y-79984523D01*
X101493808Y-79908333D01*
X101417618Y-79870238D01*
X101303332Y-79870238D01*
X101227142Y-79832142D01*
X101189047Y-79755952D01*
X101189047Y-79717857D01*
X101227142Y-79641666D01*
X101303332Y-79603571D01*
X101417618Y-79603571D01*
X101493808Y-79641666D01*
X101760475Y-79603571D02*
X102065237Y-79603571D01*
X101874761Y-79336904D02*
X101874761Y-80022619D01*
X101912856Y-80098809D01*
X101989047Y-80136904D01*
X102065237Y-80136904D01*
X103284285Y-80098809D02*
X103208094Y-80136904D01*
X103055713Y-80136904D01*
X102979523Y-80098809D01*
X102941428Y-80060714D01*
X102903332Y-79984523D01*
X102903332Y-79755952D01*
X102941428Y-79679761D01*
X102979523Y-79641666D01*
X103055713Y-79603571D01*
X103208094Y-79603571D01*
X103284285Y-79641666D01*
X103741428Y-80136904D02*
X103665237Y-80098809D01*
X103627142Y-80060714D01*
X103589047Y-79984523D01*
X103589047Y-79755952D01*
X103627142Y-79679761D01*
X103665237Y-79641666D01*
X103741428Y-79603571D01*
X103855713Y-79603571D01*
X103931904Y-79641666D01*
X103969999Y-79679761D01*
X104008094Y-79755952D01*
X104008094Y-79984523D01*
X103969999Y-80060714D01*
X103931904Y-80098809D01*
X103855713Y-80136904D01*
X103741428Y-80136904D01*
X104350951Y-79603571D02*
X104350951Y-80136904D01*
X104350951Y-79679761D02*
X104389047Y-79641666D01*
X104465237Y-79603571D01*
X104579523Y-79603571D01*
X104655713Y-79641666D01*
X104693808Y-79717857D01*
X104693808Y-80136904D01*
X104998570Y-79603571D02*
X105189047Y-80136904D01*
X105379523Y-79603571D01*
X106293808Y-80136904D02*
X106293808Y-79336904D01*
X106293808Y-79641666D02*
X106369999Y-79603571D01*
X106522380Y-79603571D01*
X106598570Y-79641666D01*
X106636666Y-79679761D01*
X106674761Y-79755952D01*
X106674761Y-79984523D01*
X106636666Y-80060714D01*
X106598570Y-80098809D01*
X106522380Y-80136904D01*
X106369999Y-80136904D01*
X106293808Y-80098809D01*
X106941428Y-79603571D02*
X107131904Y-80136904D01*
X107322380Y-79603571D02*
X107131904Y-80136904D01*
X107055713Y-80327380D01*
X107017618Y-80365476D01*
X106941428Y-80403571D01*
X108503332Y-79717857D02*
X108236666Y-79717857D01*
X108236666Y-80136904D02*
X108236666Y-79336904D01*
X108617618Y-79336904D01*
X108884285Y-79908333D02*
X109265237Y-79908333D01*
X108808094Y-80136904D02*
X109074761Y-79336904D01*
X109341428Y-80136904D01*
X109569999Y-80098809D02*
X109684285Y-80136904D01*
X109874761Y-80136904D01*
X109950951Y-80098809D01*
X109989047Y-80060714D01*
X110027142Y-79984523D01*
X110027142Y-79908333D01*
X109989047Y-79832142D01*
X109950951Y-79794047D01*
X109874761Y-79755952D01*
X109722380Y-79717857D01*
X109646189Y-79679761D01*
X109608094Y-79641666D01*
X109569999Y-79565476D01*
X109569999Y-79489285D01*
X109608094Y-79413095D01*
X109646189Y-79375000D01*
X109722380Y-79336904D01*
X109912856Y-79336904D01*
X110027142Y-79375000D01*
X110331904Y-79908333D02*
X110712856Y-79908333D01*
X110255713Y-80136904D02*
X110522380Y-79336904D01*
X110789047Y-80136904D01*
X111055713Y-80136904D02*
X111055713Y-79336904D01*
X111512856Y-80136904D01*
X111512856Y-79336904D01*
X111893808Y-80136904D02*
X111893808Y-79336904D01*
X113341428Y-80060714D02*
X113303332Y-80098809D01*
X113189047Y-80136904D01*
X113112856Y-80136904D01*
X112998570Y-80098809D01*
X112922380Y-80022619D01*
X112884285Y-79946428D01*
X112846189Y-79794047D01*
X112846189Y-79679761D01*
X112884285Y-79527380D01*
X112922380Y-79451190D01*
X112998570Y-79375000D01*
X113112856Y-79336904D01*
X113189047Y-79336904D01*
X113303332Y-79375000D01*
X113341428Y-79413095D01*
X113836666Y-79336904D02*
X113989047Y-79336904D01*
X114065237Y-79375000D01*
X114141428Y-79451190D01*
X114179523Y-79603571D01*
X114179523Y-79870238D01*
X114141428Y-80022619D01*
X114065237Y-80098809D01*
X113989047Y-80136904D01*
X113836666Y-80136904D01*
X113760475Y-80098809D01*
X113684285Y-80022619D01*
X113646189Y-79870238D01*
X113646189Y-79603571D01*
X113684285Y-79451190D01*
X113760475Y-79375000D01*
X113836666Y-79336904D01*
X114979523Y-80136904D02*
X114712856Y-79755952D01*
X114522380Y-80136904D02*
X114522380Y-79336904D01*
X114827142Y-79336904D01*
X114903332Y-79375000D01*
X114941428Y-79413095D01*
X114979523Y-79489285D01*
X114979523Y-79603571D01*
X114941428Y-79679761D01*
X114903332Y-79717857D01*
X114827142Y-79755952D01*
X114522380Y-79755952D01*
X115322380Y-80136904D02*
X115322380Y-79336904D01*
X115627142Y-79336904D01*
X115703332Y-79375000D01*
X115741428Y-79413095D01*
X115779523Y-79489285D01*
X115779523Y-79603571D01*
X115741428Y-79679761D01*
X115703332Y-79717857D01*
X115627142Y-79755952D01*
X115322380Y-79755952D01*
X116122380Y-80060714D02*
X116160475Y-80098809D01*
X116122380Y-80136904D01*
X116084285Y-80098809D01*
X116122380Y-80060714D01*
X116122380Y-80136904D01*
D11*
X96332166Y-71336904D02*
X96827404Y-71336904D01*
X96560738Y-71641666D01*
X96675023Y-71641666D01*
X96751214Y-71679761D01*
X96789309Y-71717857D01*
X96827404Y-71794047D01*
X96827404Y-71984523D01*
X96789309Y-72060714D01*
X96751214Y-72098809D01*
X96675023Y-72136904D01*
X96446452Y-72136904D01*
X96370261Y-72098809D01*
X96332166Y-72060714D01*
X97055976Y-71336904D02*
X97322642Y-72136904D01*
X97589309Y-71336904D01*
D10*
%TO.C,L1*%
X100458333Y-67902380D02*
X99982142Y-67902380D01*
X99982142Y-66902380D01*
X101315476Y-67902380D02*
X100744047Y-67902380D01*
X101029761Y-67902380D02*
X101029761Y-66902380D01*
X100934523Y-67045238D01*
X100839285Y-67140476D01*
X100744047Y-67188095D01*
D13*
X98908333Y-68308333D02*
X98941666Y-68275000D01*
X99008333Y-68241666D01*
X99175000Y-68241666D01*
X99241666Y-68275000D01*
X99275000Y-68308333D01*
X99308333Y-68375000D01*
X99308333Y-68441666D01*
X99275000Y-68541666D01*
X98875000Y-68941666D01*
X99308333Y-68941666D01*
X99575000Y-68308333D02*
X99608333Y-68275000D01*
X99675000Y-68241666D01*
X99841666Y-68241666D01*
X99908333Y-68275000D01*
X99941666Y-68308333D01*
X99975000Y-68375000D01*
X99975000Y-68441666D01*
X99941666Y-68541666D01*
X99541666Y-68941666D01*
X99975000Y-68941666D01*
X100575000Y-68475000D02*
X100575000Y-68941666D01*
X100275000Y-68475000D02*
X100275000Y-68841666D01*
X100308333Y-68908333D01*
X100375000Y-68941666D01*
X100475000Y-68941666D01*
X100541666Y-68908333D01*
X100575000Y-68875000D01*
X100908333Y-68941666D02*
X100908333Y-68241666D01*
X100908333Y-68575000D02*
X101308333Y-68575000D01*
X101308333Y-68941666D02*
X101308333Y-68241666D01*
D10*
X104750000Y-68927380D02*
X104750000Y-69165476D01*
X104511904Y-69070238D02*
X104750000Y-69165476D01*
X104988095Y-69070238D01*
X104607142Y-69355952D02*
X104750000Y-69165476D01*
X104892857Y-69355952D01*
D13*
%TO.C,C2*%
X101633333Y-76675000D02*
X101600000Y-76708333D01*
X101500000Y-76741666D01*
X101433333Y-76741666D01*
X101333333Y-76708333D01*
X101266666Y-76641666D01*
X101233333Y-76575000D01*
X101200000Y-76441666D01*
X101200000Y-76341666D01*
X101233333Y-76208333D01*
X101266666Y-76141666D01*
X101333333Y-76075000D01*
X101433333Y-76041666D01*
X101500000Y-76041666D01*
X101600000Y-76075000D01*
X101633333Y-76108333D01*
X101900000Y-76108333D02*
X101933333Y-76075000D01*
X102000000Y-76041666D01*
X102166666Y-76041666D01*
X102233333Y-76075000D01*
X102266666Y-76108333D01*
X102300000Y-76175000D01*
X102300000Y-76241666D01*
X102266666Y-76341666D01*
X101866666Y-76741666D01*
X102300000Y-76741666D01*
%TO.C,R1*%
X101633333Y-78791666D02*
X101400000Y-78458333D01*
X101233333Y-78791666D02*
X101233333Y-78091666D01*
X101500000Y-78091666D01*
X101566666Y-78125000D01*
X101600000Y-78158333D01*
X101633333Y-78225000D01*
X101633333Y-78325000D01*
X101600000Y-78391666D01*
X101566666Y-78425000D01*
X101500000Y-78458333D01*
X101233333Y-78458333D01*
X102300000Y-78791666D02*
X101900000Y-78791666D01*
X102100000Y-78791666D02*
X102100000Y-78091666D01*
X102033333Y-78191666D01*
X101966666Y-78258333D01*
X101900000Y-78291666D01*
%TO.C,C1*%
X99833333Y-70750000D02*
X99800000Y-70783333D01*
X99700000Y-70816666D01*
X99633333Y-70816666D01*
X99533333Y-70783333D01*
X99466666Y-70716666D01*
X99433333Y-70650000D01*
X99400000Y-70516666D01*
X99400000Y-70416666D01*
X99433333Y-70283333D01*
X99466666Y-70216666D01*
X99533333Y-70150000D01*
X99633333Y-70116666D01*
X99700000Y-70116666D01*
X99800000Y-70150000D01*
X99833333Y-70183333D01*
X100500000Y-70816666D02*
X100100000Y-70816666D01*
X100300000Y-70816666D02*
X100300000Y-70116666D01*
X100233333Y-70216666D01*
X100166666Y-70283333D01*
X100100000Y-70316666D01*
%TO.C,R2*%
X106283333Y-78791666D02*
X106050000Y-78458333D01*
X105883333Y-78791666D02*
X105883333Y-78091666D01*
X106150000Y-78091666D01*
X106216666Y-78125000D01*
X106250000Y-78158333D01*
X106283333Y-78225000D01*
X106283333Y-78325000D01*
X106250000Y-78391666D01*
X106216666Y-78425000D01*
X106150000Y-78458333D01*
X105883333Y-78458333D01*
X106550000Y-78158333D02*
X106583333Y-78125000D01*
X106650000Y-78091666D01*
X106816666Y-78091666D01*
X106883333Y-78125000D01*
X106916666Y-78158333D01*
X106950000Y-78225000D01*
X106950000Y-78291666D01*
X106916666Y-78391666D01*
X106516666Y-78791666D01*
X106950000Y-78791666D01*
D10*
%TO.C,J1*%
X93941666Y-68947380D02*
X93941666Y-69661666D01*
X93894047Y-69804523D01*
X93798809Y-69899761D01*
X93655952Y-69947380D01*
X93560714Y-69947380D01*
X94941666Y-69947380D02*
X94370238Y-69947380D01*
X94655952Y-69947380D02*
X94655952Y-68947380D01*
X94560714Y-69090238D01*
X94465476Y-69185476D01*
X94370238Y-69233095D01*
D13*
%TO.C,D1*%
X101233333Y-74466666D02*
X101233333Y-73766666D01*
X101400000Y-73766666D01*
X101500000Y-73800000D01*
X101566666Y-73866666D01*
X101600000Y-73933333D01*
X101633333Y-74066666D01*
X101633333Y-74166666D01*
X101600000Y-74300000D01*
X101566666Y-74366666D01*
X101500000Y-74433333D01*
X101400000Y-74466666D01*
X101233333Y-74466666D01*
X102300000Y-74466666D02*
X101900000Y-74466666D01*
X102100000Y-74466666D02*
X102100000Y-73766666D01*
X102033333Y-73866666D01*
X101966666Y-73933333D01*
X101900000Y-73966666D01*
D10*
%TO.C,J2*%
X114841666Y-68947380D02*
X114841666Y-69661666D01*
X114794047Y-69804523D01*
X114698809Y-69899761D01*
X114555952Y-69947380D01*
X114460714Y-69947380D01*
X115270238Y-69042619D02*
X115317857Y-68995000D01*
X115413095Y-68947380D01*
X115651190Y-68947380D01*
X115746428Y-68995000D01*
X115794047Y-69042619D01*
X115841666Y-69137857D01*
X115841666Y-69233095D01*
X115794047Y-69375952D01*
X115222619Y-69947380D01*
X115841666Y-69947380D01*
D13*
%TO.C,U1*%
X108816666Y-67174166D02*
X108816666Y-67740833D01*
X108850000Y-67807500D01*
X108883333Y-67840833D01*
X108950000Y-67874166D01*
X109083333Y-67874166D01*
X109150000Y-67840833D01*
X109183333Y-67807500D01*
X109216666Y-67740833D01*
X109216666Y-67174166D01*
X109916666Y-67874166D02*
X109516666Y-67874166D01*
X109716666Y-67874166D02*
X109716666Y-67174166D01*
X109650000Y-67274166D01*
X109583333Y-67340833D01*
X109516666Y-67374166D01*
%TO.C,L1*%
X107480500Y-66744500D02*
X102019500Y-66744500D01*
X107480500Y-72205500D02*
X107480500Y-71789150D01*
X102019500Y-72205500D02*
X107480500Y-72205500D01*
X102019500Y-71789150D02*
X102019500Y-72205500D01*
X107480500Y-67160850D02*
X107480500Y-66744500D01*
X102019500Y-66744500D02*
X102019500Y-67160850D01*
%TO.C,C2*%
X104138748Y-77185000D02*
X104661252Y-77185000D01*
X104138748Y-75715000D02*
X104661252Y-75715000D01*
%TO.C,R1*%
X103942742Y-78972500D02*
X104417258Y-78972500D01*
X103942742Y-77927500D02*
X104417258Y-77927500D01*
%TO.C,C1*%
X100610000Y-72488748D02*
X100610000Y-73011252D01*
X99140000Y-72488748D02*
X99140000Y-73011252D01*
%TO.C,R2*%
X108412742Y-77927500D02*
X108887258Y-77927500D01*
X108412742Y-78972500D02*
X108887258Y-78972500D01*
%TO.C,J1*%
X92945000Y-73095000D02*
X92945000Y-75695000D01*
X92945000Y-75695000D02*
X95605000Y-75695000D01*
X92945000Y-71825000D02*
X92945000Y-70495000D01*
X92945000Y-73095000D02*
X95605000Y-73095000D01*
X92945000Y-70495000D02*
X94275000Y-70495000D01*
X95605000Y-73095000D02*
X95605000Y-75695000D01*
%TO.C,D1*%
X102800000Y-73150000D02*
X102800000Y-75150000D01*
X102800000Y-73150000D02*
X106700000Y-73150000D01*
X102800000Y-75150000D02*
X106700000Y-75150000D01*
%TO.C,J2*%
X113845000Y-70495000D02*
X115175000Y-70495000D01*
X113845000Y-71825000D02*
X113845000Y-70495000D01*
X116505000Y-73095000D02*
X116505000Y-75695000D01*
X113845000Y-73095000D02*
X113845000Y-75695000D01*
X113845000Y-75695000D02*
X116505000Y-75695000D01*
X113845000Y-73095000D02*
X116505000Y-73095000D01*
%TO.C,U1*%
X111760000Y-70282500D02*
X111760000Y-71082500D01*
X108640000Y-70282500D02*
X108640000Y-69482500D01*
X111760000Y-70282500D02*
X111760000Y-69482500D01*
X108640000Y-70282500D02*
X108640000Y-72082500D01*
%TD*%
M02*
