%TF.GenerationSoftware,KiCad,Pcbnew,6.0.5-a6ca702e91~116~ubuntu20.04.1*%
%TF.CreationDate,2022-06-08T10:32:40+02:00*%
%TF.ProjectId,mini-pcb-3-to-5V-booster,6d696e69-2d70-4636-922d-332d746f2d35,rev?*%
%TF.SameCoordinates,Original*%
%TF.FileFunction,Copper,L1,Top*%
%TF.FilePolarity,Positive*%
%FSLAX46Y46*%
G04 Gerber Fmt 4.6, Leading zero omitted, Abs format (unit mm)*
G04 Created by KiCad (PCBNEW 6.0.5-a6ca702e91~116~ubuntu20.04.1) date 2022-06-08 10:32:40*
%MOMM*%
%LPD*%
G01*
G04 APERTURE LIST*
G04 Aperture macros list*
%AMRoundRect*
0 Rectangle with rounded corners*
0 $1 Rounding radius*
0 $2 $3 $4 $5 $6 $7 $8 $9 X,Y pos of 4 corners*
0 Add a 4 corners polygon primitive as box body*
4,1,4,$2,$3,$4,$5,$6,$7,$8,$9,$2,$3,0*
0 Add four circle primitives for the rounded corners*
1,1,$1+$1,$2,$3*
1,1,$1+$1,$4,$5*
1,1,$1+$1,$6,$7*
1,1,$1+$1,$8,$9*
0 Add four rect primitives between the rounded corners*
20,1,$1+$1,$2,$3,$4,$5,0*
20,1,$1+$1,$4,$5,$6,$7,0*
20,1,$1+$1,$6,$7,$8,$9,0*
20,1,$1+$1,$8,$9,$2,$3,0*%
G04 Aperture macros list end*
%TA.AperFunction,SMDPad,CuDef*%
%ADD10R,1.257300X4.013200*%
%TD*%
%TA.AperFunction,SMDPad,CuDef*%
%ADD11RoundRect,0.250000X-0.250000X-0.475000X0.250000X-0.475000X0.250000X0.475000X-0.250000X0.475000X0*%
%TD*%
%TA.AperFunction,SMDPad,CuDef*%
%ADD12RoundRect,0.200000X-0.200000X-0.275000X0.200000X-0.275000X0.200000X0.275000X-0.200000X0.275000X0*%
%TD*%
%TA.AperFunction,SMDPad,CuDef*%
%ADD13RoundRect,0.250000X-0.475000X0.250000X-0.475000X-0.250000X0.475000X-0.250000X0.475000X0.250000X0*%
%TD*%
%TA.AperFunction,ComponentPad*%
%ADD14R,1.700000X1.700000*%
%TD*%
%TA.AperFunction,ComponentPad*%
%ADD15O,1.700000X1.700000*%
%TD*%
%TA.AperFunction,SMDPad,CuDef*%
%ADD16R,0.900000X1.200000*%
%TD*%
%TA.AperFunction,SMDPad,CuDef*%
%ADD17RoundRect,0.150000X0.150000X-0.512500X0.150000X0.512500X-0.150000X0.512500X-0.150000X-0.512500X0*%
%TD*%
%TA.AperFunction,ViaPad*%
%ADD18C,0.800000*%
%TD*%
%TA.AperFunction,Conductor*%
%ADD19C,0.400000*%
%TD*%
%TA.AperFunction,Conductor*%
%ADD20C,0.600000*%
%TD*%
%TA.AperFunction,Conductor*%
%ADD21C,0.250000*%
%TD*%
G04 APERTURE END LIST*
D10*
%TO.P,L1,1,1*%
%TO.N,BAT+*%
X102775150Y-69475000D03*
%TO.P,L1,2,2*%
%TO.N,Net-(D1-Pad2)*%
X106724850Y-69475000D03*
%TD*%
D11*
%TO.P,C2,1*%
%TO.N,VBUS*%
X103450000Y-76450000D03*
%TO.P,C2,2*%
%TO.N,GND*%
X105350000Y-76450000D03*
%TD*%
D12*
%TO.P,R1,1*%
%TO.N,VBUS*%
X103355000Y-78450000D03*
%TO.P,R1,2*%
%TO.N,Net-(R1-Pad2)*%
X105005000Y-78450000D03*
%TD*%
D13*
%TO.P,C1,1*%
%TO.N,BAT+*%
X99875000Y-71800000D03*
%TO.P,C1,2*%
%TO.N,GND*%
X99875000Y-73700000D03*
%TD*%
D12*
%TO.P,R2,1*%
%TO.N,Net-(R1-Pad2)*%
X107825000Y-78450000D03*
%TO.P,R2,2*%
%TO.N,GND*%
X109475000Y-78450000D03*
%TD*%
D14*
%TO.P,J1,1,Pin_1*%
%TO.N,BAT+*%
X94275000Y-71825000D03*
D15*
%TO.P,J1,2,Pin_2*%
%TO.N,GND*%
X94275000Y-74365000D03*
%TD*%
D16*
%TO.P,D1,1,K*%
%TO.N,VBUS*%
X103400000Y-74150000D03*
%TO.P,D1,2,A*%
%TO.N,Net-(D1-Pad2)*%
X106700000Y-74150000D03*
%TD*%
D14*
%TO.P,J2,1,Pin_1*%
%TO.N,VBUS*%
X115175000Y-71825000D03*
D15*
%TO.P,J2,2,Pin_2*%
%TO.N,GND*%
X115175000Y-74365000D03*
%TD*%
D17*
%TO.P,U1,1,SW*%
%TO.N,Net-(D1-Pad2)*%
X109250000Y-71420000D03*
%TO.P,U1,2,GND*%
%TO.N,GND*%
X110200000Y-71420000D03*
%TO.P,U1,3,FB*%
%TO.N,Net-(R1-Pad2)*%
X111150000Y-71420000D03*
%TO.P,U1,4,EN*%
%TO.N,BAT+*%
X111150000Y-69145000D03*
%TO.P,U1,5,IN*%
X110200000Y-69145000D03*
%TO.P,U1,6,NC*%
%TO.N,unconnected-(U1-Pad6)*%
X109250000Y-69145000D03*
%TD*%
D18*
%TO.N,VBUS*%
X102200000Y-72950000D03*
%TO.N,GND*%
X110225000Y-72800000D03*
X106700000Y-76450000D03*
X99275000Y-75150000D03*
X110875000Y-78450000D03*
%TD*%
D19*
%TO.N,VBUS*%
X103400000Y-74150000D02*
X102200000Y-72950000D01*
X103355000Y-78450000D02*
X103355000Y-74195000D01*
X103355000Y-74195000D02*
X103400000Y-74150000D01*
%TO.N,Net-(D1-Pad2)*%
X109250000Y-71420000D02*
X109250000Y-73275000D01*
X109250000Y-73275000D02*
X108375000Y-74150000D01*
X108375000Y-74150000D02*
X106700000Y-74150000D01*
X109250000Y-71420000D02*
X109250000Y-70925000D01*
X109250000Y-70925000D02*
X107800000Y-69475000D01*
X107800000Y-69475000D02*
X106724850Y-69475000D01*
%TO.N,GND*%
X110200000Y-72775000D02*
X110225000Y-72800000D01*
X110200000Y-71420000D02*
X110200000Y-72775000D01*
%TO.N,Net-(R1-Pad2)*%
X111150000Y-71420000D02*
X111150000Y-74900000D01*
X111150000Y-74900000D02*
X109550000Y-76500000D01*
X109550000Y-76500000D02*
X108150000Y-76500000D01*
X108150000Y-76500000D02*
X107825000Y-76825000D01*
X107825000Y-76825000D02*
X107825000Y-78450000D01*
X105005000Y-78450000D02*
X107825000Y-78450000D01*
%TO.N,BAT+*%
X111150000Y-67900000D02*
X110525000Y-67900000D01*
X110525000Y-67900000D02*
X110200000Y-68225000D01*
X111150000Y-69145000D02*
X111150000Y-67900000D01*
D20*
X111150000Y-67900000D02*
X111150000Y-67150000D01*
D19*
X110200000Y-68225000D02*
X110200000Y-69145000D01*
D20*
X110725000Y-66725000D02*
X103250000Y-66725000D01*
X111150000Y-67150000D02*
X110725000Y-66725000D01*
X103250000Y-66725000D02*
X102775150Y-67199850D01*
X102775150Y-67199850D02*
X102775150Y-69475000D01*
X99875000Y-70575000D02*
X100975000Y-69475000D01*
X100975000Y-69475000D02*
X102775150Y-69475000D01*
X99875000Y-71800000D02*
X99875000Y-70575000D01*
X94275000Y-71825000D02*
X99850000Y-71825000D01*
D19*
X99850000Y-71825000D02*
X99875000Y-71800000D01*
D21*
%TO.N,GND*%
X109475000Y-78450000D02*
X110875000Y-78450000D01*
X99250000Y-73950000D02*
X99250000Y-75125000D01*
X105350000Y-76450000D02*
X106700000Y-76450000D01*
%TD*%
M02*
