G04 #@! TF.GenerationSoftware,KiCad,Pcbnew,6.0.8-f2edbf62ab~116~ubuntu20.04.1*
G04 #@! TF.CreationDate,2022-10-06T18:38:35+02:00*
G04 #@! TF.ProjectId,IT8951-HAT,49543839-3531-42d4-9841-542e6b696361,v1.2*
G04 #@! TF.SameCoordinates,Original*
G04 #@! TF.FileFunction,Paste,Top*
G04 #@! TF.FilePolarity,Positive*
%FSLAX46Y46*%
G04 Gerber Fmt 4.6, Leading zero omitted, Abs format (unit mm)*
G04 Created by KiCad (PCBNEW 6.0.8-f2edbf62ab~116~ubuntu20.04.1) date 2022-10-06 18:38:35*
%MOMM*%
%LPD*%
G01*
G04 APERTURE LIST*
G04 Aperture macros list*
%AMRoundRect*
0 Rectangle with rounded corners*
0 $1 Rounding radius*
0 $2 $3 $4 $5 $6 $7 $8 $9 X,Y pos of 4 corners*
0 Add a 4 corners polygon primitive as box body*
4,1,4,$2,$3,$4,$5,$6,$7,$8,$9,$2,$3,0*
0 Add four circle primitives for the rounded corners*
1,1,$1+$1,$2,$3*
1,1,$1+$1,$4,$5*
1,1,$1+$1,$6,$7*
1,1,$1+$1,$8,$9*
0 Add four rect primitives between the rounded corners*
20,1,$1+$1,$2,$3,$4,$5,0*
20,1,$1+$1,$4,$5,$6,$7,0*
20,1,$1+$1,$6,$7,$8,$9,0*
20,1,$1+$1,$8,$9,$2,$3,0*%
G04 Aperture macros list end*
%ADD10R,1.500000X0.650000*%
%ADD11R,2.700000X3.600000*%
%ADD12RoundRect,0.250000X-0.475000X0.250000X-0.475000X-0.250000X0.475000X-0.250000X0.475000X0.250000X0*%
%ADD13RoundRect,0.150000X-0.150000X0.587500X-0.150000X-0.587500X0.150000X-0.587500X0.150000X0.587500X0*%
%ADD14R,1.200000X0.900000*%
%ADD15RoundRect,0.250000X0.925000X-0.412500X0.925000X0.412500X-0.925000X0.412500X-0.925000X-0.412500X0*%
%ADD16RoundRect,0.250000X-0.250000X-0.475000X0.250000X-0.475000X0.250000X0.475000X-0.250000X0.475000X0*%
%ADD17RoundRect,0.200000X0.200000X0.275000X-0.200000X0.275000X-0.200000X-0.275000X0.200000X-0.275000X0*%
%ADD18R,4.013200X1.257300*%
%ADD19RoundRect,0.200000X-0.200000X-0.275000X0.200000X-0.275000X0.200000X0.275000X-0.200000X0.275000X0*%
%ADD20RoundRect,0.243750X-0.243750X-0.456250X0.243750X-0.456250X0.243750X0.456250X-0.243750X0.456250X0*%
%ADD21RoundRect,0.150000X0.825000X0.150000X-0.825000X0.150000X-0.825000X-0.150000X0.825000X-0.150000X0*%
%ADD22R,0.838200X0.889000*%
%ADD23R,0.889000X0.838200*%
%ADD24RoundRect,0.150000X0.587500X0.150000X-0.587500X0.150000X-0.587500X-0.150000X0.587500X-0.150000X0*%
%ADD25O,1.400000X0.449999*%
%ADD26R,0.500000X1.005599*%
%ADD27R,1.450000X0.600000*%
%ADD28R,1.450000X0.300000*%
%ADD29RoundRect,0.200000X0.275000X-0.200000X0.275000X0.200000X-0.275000X0.200000X-0.275000X-0.200000X0*%
%ADD30RoundRect,0.250000X0.275000X0.275000X-0.275000X0.275000X-0.275000X-0.275000X0.275000X-0.275000X0*%
%ADD31RoundRect,0.062500X0.350000X0.062500X-0.350000X0.062500X-0.350000X-0.062500X0.350000X-0.062500X0*%
%ADD32RoundRect,0.062500X0.062500X0.350000X-0.062500X0.350000X-0.062500X-0.350000X0.062500X-0.350000X0*%
%ADD33RoundRect,0.250000X0.250000X0.475000X-0.250000X0.475000X-0.250000X-0.475000X0.250000X-0.475000X0*%
%ADD34RoundRect,0.200000X-0.200000X-0.800000X0.200000X-0.800000X0.200000X0.800000X-0.200000X0.800000X0*%
%ADD35RoundRect,0.150000X-0.587500X-0.150000X0.587500X-0.150000X0.587500X0.150000X-0.587500X0.150000X0*%
%ADD36RoundRect,0.200000X-0.275000X0.200000X-0.275000X-0.200000X0.275000X-0.200000X0.275000X0.200000X0*%
%ADD37RoundRect,0.150000X0.150000X-0.512500X0.150000X0.512500X-0.150000X0.512500X-0.150000X-0.512500X0*%
%ADD38RoundRect,0.250000X0.475000X-0.250000X0.475000X0.250000X-0.475000X0.250000X-0.475000X-0.250000X0*%
G04 APERTURE END LIST*
D10*
X100425000Y-73405000D03*
X100425000Y-72135000D03*
X100425000Y-70865000D03*
X100425000Y-69595000D03*
X95025000Y-69595000D03*
X95025000Y-70865000D03*
X95025000Y-72135000D03*
X95025000Y-73405000D03*
D11*
X97725000Y-71500000D03*
D12*
X88600000Y-66050000D03*
X88600000Y-67950000D03*
D13*
X112775000Y-51687500D03*
X110875000Y-51687500D03*
X111825000Y-53562500D03*
D14*
X85800000Y-67625000D03*
X85800000Y-64325000D03*
D15*
X108175000Y-57662500D03*
X108175000Y-54587500D03*
D16*
X139350000Y-79125000D03*
X141250000Y-79125000D03*
D17*
X102250000Y-52350000D03*
X100600000Y-52350000D03*
X141500000Y-72675000D03*
X139850000Y-72675000D03*
D16*
X89000000Y-62875000D03*
X90900000Y-62875000D03*
D18*
X129225000Y-82175150D03*
X129225000Y-86124850D03*
D19*
X137375000Y-85025000D03*
X139025000Y-85025000D03*
D14*
X133450000Y-85300000D03*
X133450000Y-82000000D03*
D17*
X144325000Y-57800000D03*
X142675000Y-57800000D03*
D20*
X85412500Y-70375000D03*
X87287500Y-70375000D03*
D21*
X92800000Y-58930000D03*
X92800000Y-57660000D03*
X92800000Y-56390000D03*
X92800000Y-55120000D03*
X87850000Y-55120000D03*
X87850000Y-56390000D03*
X87850000Y-57660000D03*
X87850000Y-58930000D03*
D16*
X107225000Y-59750000D03*
X109125000Y-59750000D03*
D19*
X137875000Y-83175000D03*
X139525000Y-83175000D03*
D20*
X85412500Y-72725000D03*
X87287500Y-72725000D03*
D19*
X101900000Y-62025000D03*
X103550000Y-62025000D03*
D22*
X115269100Y-55196300D03*
X115269100Y-56466300D03*
X115269100Y-57736300D03*
X115269100Y-59006300D03*
X115269100Y-60276300D03*
X115269100Y-61546300D03*
X115269100Y-62816300D03*
X115269100Y-64086300D03*
X115269100Y-65356300D03*
X115269100Y-66626300D03*
X115269100Y-67896300D03*
X115269100Y-69166300D03*
X115269100Y-70436300D03*
X115269100Y-71706300D03*
D23*
X116865000Y-72780900D03*
X118135000Y-72780900D03*
X119405000Y-72780900D03*
X120675000Y-72780900D03*
X121945000Y-72780900D03*
X123215000Y-72780900D03*
X124485000Y-72780900D03*
X125755000Y-72780900D03*
X127025000Y-72780900D03*
X128295000Y-72780900D03*
X129565000Y-72780900D03*
X130835000Y-72780900D03*
D22*
X132430900Y-71706300D03*
X132430900Y-70436300D03*
X132430900Y-69166300D03*
X132430900Y-67896300D03*
X132430900Y-66626300D03*
X132430900Y-65356300D03*
X132430900Y-64086300D03*
X132430900Y-62816300D03*
X132430900Y-61546300D03*
X132430900Y-60276300D03*
X132430900Y-59006300D03*
X132430900Y-57736300D03*
X132430900Y-56466300D03*
X132430900Y-55196300D03*
D24*
X137687500Y-72650000D03*
X137687500Y-70750000D03*
X135812500Y-71700000D03*
D25*
X100000002Y-64149999D03*
X100000002Y-63499998D03*
X100000002Y-62849999D03*
X100000002Y-62199998D03*
X94100001Y-62199998D03*
X94100001Y-62849999D03*
X94100001Y-63499998D03*
X94100001Y-64149999D03*
D26*
X125350001Y-82797201D03*
X124400000Y-82797201D03*
X123449999Y-82797201D03*
X123449999Y-85502799D03*
X125350001Y-85502799D03*
D17*
X106575000Y-71200000D03*
X104925000Y-71200000D03*
D27*
X80390000Y-52970000D03*
X80390000Y-53770000D03*
D28*
X80390000Y-54970000D03*
X80390000Y-55970000D03*
X80390000Y-56470000D03*
X80390000Y-57470000D03*
D27*
X80390000Y-58670000D03*
X80390000Y-59470000D03*
X80390000Y-59470000D03*
X80390000Y-58670000D03*
D28*
X80390000Y-57970000D03*
X80390000Y-56970000D03*
X80390000Y-55470000D03*
X80390000Y-54470000D03*
D27*
X80390000Y-53770000D03*
X80390000Y-52970000D03*
D29*
X106425000Y-66325000D03*
X106425000Y-64675000D03*
D30*
X140800000Y-60845000D03*
X140800000Y-62145000D03*
X139500000Y-62145000D03*
X139500000Y-60845000D03*
D31*
X142087500Y-62745000D03*
X142087500Y-62245000D03*
X142087500Y-61745000D03*
X142087500Y-61245000D03*
X142087500Y-60745000D03*
X142087500Y-60245000D03*
D32*
X141400000Y-59557500D03*
X140900000Y-59557500D03*
X140400000Y-59557500D03*
X139900000Y-59557500D03*
X139400000Y-59557500D03*
X138900000Y-59557500D03*
D31*
X138212500Y-60245000D03*
X138212500Y-60745000D03*
X138212500Y-61245000D03*
X138212500Y-61745000D03*
X138212500Y-62245000D03*
X138212500Y-62745000D03*
D32*
X138900000Y-63432500D03*
X139400000Y-63432500D03*
X139900000Y-63432500D03*
X140400000Y-63432500D03*
X140900000Y-63432500D03*
X141400000Y-63432500D03*
D33*
X139325000Y-87750000D03*
X137425000Y-87750000D03*
D29*
X105650000Y-52850000D03*
X105650000Y-51200000D03*
D27*
X146905000Y-63325000D03*
X146905000Y-62525000D03*
D28*
X146905000Y-61325000D03*
X146905000Y-60325000D03*
X146905000Y-59825000D03*
X146905000Y-58825000D03*
D27*
X146905000Y-57625000D03*
X146905000Y-56825000D03*
X146905000Y-56825000D03*
X146905000Y-57625000D03*
D28*
X146905000Y-58325000D03*
X146905000Y-59325000D03*
X146905000Y-60825000D03*
X146905000Y-61825000D03*
D27*
X146905000Y-62525000D03*
X146905000Y-63325000D03*
D34*
X99775000Y-49675000D03*
X103975000Y-49675000D03*
D29*
X137675000Y-68925000D03*
X137675000Y-67275000D03*
D19*
X110825000Y-61825000D03*
X112475000Y-61825000D03*
D29*
X103075000Y-71800000D03*
X103075000Y-70150000D03*
D19*
X89750000Y-70600000D03*
X91400000Y-70600000D03*
D35*
X103412500Y-55925000D03*
X103412500Y-57825000D03*
X105287500Y-56875000D03*
D36*
X142050000Y-66125000D03*
X142050000Y-67775000D03*
X103750000Y-64575000D03*
X103750000Y-66225000D03*
D19*
X89750000Y-72150000D03*
X91400000Y-72150000D03*
D37*
X135700000Y-81332500D03*
X136650000Y-81332500D03*
X137600000Y-81332500D03*
X137600000Y-79057500D03*
X136650000Y-79057500D03*
X135700000Y-79057500D03*
D17*
X98975000Y-52350000D03*
X97325000Y-52350000D03*
D29*
X107950000Y-64875000D03*
X107950000Y-63225000D03*
D38*
X100575000Y-57850000D03*
X100575000Y-55950000D03*
D33*
X140125000Y-53625000D03*
X138225000Y-53625000D03*
D38*
X94075000Y-67550000D03*
X94075000Y-65650000D03*
M02*
