G04 #@! TF.GenerationSoftware,KiCad,Pcbnew,6.0.8-f2edbf62ab~116~ubuntu20.04.1*
G04 #@! TF.CreationDate,2022-10-06T18:38:35+02:00*
G04 #@! TF.ProjectId,IT8951-HAT,49543839-3531-42d4-9841-542e6b696361,v1.2*
G04 #@! TF.SameCoordinates,Original*
G04 #@! TF.FileFunction,Copper,L1,Top*
G04 #@! TF.FilePolarity,Positive*
%FSLAX46Y46*%
G04 Gerber Fmt 4.6, Leading zero omitted, Abs format (unit mm)*
G04 Created by KiCad (PCBNEW 6.0.8-f2edbf62ab~116~ubuntu20.04.1) date 2022-10-06 18:38:35*
%MOMM*%
%LPD*%
G01*
G04 APERTURE LIST*
G04 Aperture macros list*
%AMRoundRect*
0 Rectangle with rounded corners*
0 $1 Rounding radius*
0 $2 $3 $4 $5 $6 $7 $8 $9 X,Y pos of 4 corners*
0 Add a 4 corners polygon primitive as box body*
4,1,4,$2,$3,$4,$5,$6,$7,$8,$9,$2,$3,0*
0 Add four circle primitives for the rounded corners*
1,1,$1+$1,$2,$3*
1,1,$1+$1,$4,$5*
1,1,$1+$1,$6,$7*
1,1,$1+$1,$8,$9*
0 Add four rect primitives between the rounded corners*
20,1,$1+$1,$2,$3,$4,$5,0*
20,1,$1+$1,$4,$5,$6,$7,0*
20,1,$1+$1,$6,$7,$8,$9,0*
20,1,$1+$1,$8,$9,$2,$3,0*%
%AMFreePoly0*
4,1,22,0.500000,-0.750000,0.000000,-0.750000,0.000000,-0.745033,-0.079941,-0.743568,-0.215256,-0.701293,-0.333266,-0.622738,-0.424486,-0.514219,-0.481581,-0.384460,-0.499164,-0.250000,-0.500000,-0.250000,-0.500000,0.250000,-0.499164,0.250000,-0.499963,0.256109,-0.478152,0.396186,-0.417904,0.524511,-0.324060,0.630769,-0.204165,0.706417,-0.067858,0.745374,0.000000,0.744959,0.000000,0.750000,
0.500000,0.750000,0.500000,-0.750000,0.500000,-0.750000,$1*%
%AMFreePoly1*
4,1,20,0.000000,0.744959,0.073905,0.744508,0.209726,0.703889,0.328688,0.626782,0.421226,0.519385,0.479903,0.390333,0.500000,0.250000,0.500000,-0.250000,0.499851,-0.262216,0.476331,-0.402017,0.414519,-0.529596,0.319384,-0.634700,0.198574,-0.708877,0.061801,-0.746166,0.000000,-0.745033,0.000000,-0.750000,-0.500000,-0.750000,-0.500000,0.750000,0.000000,0.750000,0.000000,0.744959,
0.000000,0.744959,$1*%
G04 Aperture macros list end*
G04 #@! TA.AperFunction,NonConductor*
%ADD10C,0.200000*%
G04 #@! TD*
G04 #@! TA.AperFunction,SMDPad,CuDef*
%ADD11R,1.500000X0.650000*%
G04 #@! TD*
G04 #@! TA.AperFunction,SMDPad,CuDef*
%ADD12R,2.700000X3.600000*%
G04 #@! TD*
G04 #@! TA.AperFunction,SMDPad,CuDef*
%ADD13RoundRect,0.250000X-0.475000X0.250000X-0.475000X-0.250000X0.475000X-0.250000X0.475000X0.250000X0*%
G04 #@! TD*
G04 #@! TA.AperFunction,SMDPad,CuDef*
%ADD14RoundRect,0.150000X-0.150000X0.587500X-0.150000X-0.587500X0.150000X-0.587500X0.150000X0.587500X0*%
G04 #@! TD*
G04 #@! TA.AperFunction,SMDPad,CuDef*
%ADD15R,1.200000X0.900000*%
G04 #@! TD*
G04 #@! TA.AperFunction,SMDPad,CuDef*
%ADD16FreePoly0,180.000000*%
G04 #@! TD*
G04 #@! TA.AperFunction,SMDPad,CuDef*
%ADD17FreePoly1,180.000000*%
G04 #@! TD*
G04 #@! TA.AperFunction,SMDPad,CuDef*
%ADD18RoundRect,0.250000X0.925000X-0.412500X0.925000X0.412500X-0.925000X0.412500X-0.925000X-0.412500X0*%
G04 #@! TD*
G04 #@! TA.AperFunction,SMDPad,CuDef*
%ADD19RoundRect,0.250000X-0.250000X-0.475000X0.250000X-0.475000X0.250000X0.475000X-0.250000X0.475000X0*%
G04 #@! TD*
G04 #@! TA.AperFunction,SMDPad,CuDef*
%ADD20C,1.500000*%
G04 #@! TD*
G04 #@! TA.AperFunction,SMDPad,CuDef*
%ADD21RoundRect,0.200000X0.200000X0.275000X-0.200000X0.275000X-0.200000X-0.275000X0.200000X-0.275000X0*%
G04 #@! TD*
G04 #@! TA.AperFunction,ComponentPad*
%ADD22R,1.700000X1.700000*%
G04 #@! TD*
G04 #@! TA.AperFunction,ComponentPad*
%ADD23O,1.700000X1.700000*%
G04 #@! TD*
G04 #@! TA.AperFunction,SMDPad,CuDef*
%ADD24R,4.013200X1.257300*%
G04 #@! TD*
G04 #@! TA.AperFunction,SMDPad,CuDef*
%ADD25C,1.000000*%
G04 #@! TD*
G04 #@! TA.AperFunction,SMDPad,CuDef*
%ADD26RoundRect,0.200000X-0.200000X-0.275000X0.200000X-0.275000X0.200000X0.275000X-0.200000X0.275000X0*%
G04 #@! TD*
G04 #@! TA.AperFunction,SMDPad,CuDef*
%ADD27RoundRect,0.243750X-0.243750X-0.456250X0.243750X-0.456250X0.243750X0.456250X-0.243750X0.456250X0*%
G04 #@! TD*
G04 #@! TA.AperFunction,SMDPad,CuDef*
%ADD28RoundRect,0.150000X0.825000X0.150000X-0.825000X0.150000X-0.825000X-0.150000X0.825000X-0.150000X0*%
G04 #@! TD*
G04 #@! TA.AperFunction,ComponentPad*
%ADD29RoundRect,0.250000X0.750000X-0.600000X0.750000X0.600000X-0.750000X0.600000X-0.750000X-0.600000X0*%
G04 #@! TD*
G04 #@! TA.AperFunction,ComponentPad*
%ADD30O,2.000000X1.700000*%
G04 #@! TD*
G04 #@! TA.AperFunction,SMDPad,CuDef*
%ADD31R,0.838200X0.889000*%
G04 #@! TD*
G04 #@! TA.AperFunction,SMDPad,CuDef*
%ADD32R,0.889000X0.838200*%
G04 #@! TD*
G04 #@! TA.AperFunction,SMDPad,CuDef*
%ADD33R,3.708400X3.708400*%
G04 #@! TD*
G04 #@! TA.AperFunction,SMDPad,CuDef*
%ADD34RoundRect,0.150000X0.587500X0.150000X-0.587500X0.150000X-0.587500X-0.150000X0.587500X-0.150000X0*%
G04 #@! TD*
G04 #@! TA.AperFunction,SMDPad,CuDef*
%ADD35O,1.400000X0.449999*%
G04 #@! TD*
G04 #@! TA.AperFunction,ComponentPad*
%ADD36R,1.000000X1.000000*%
G04 #@! TD*
G04 #@! TA.AperFunction,ComponentPad*
%ADD37O,1.000000X1.000000*%
G04 #@! TD*
G04 #@! TA.AperFunction,SMDPad,CuDef*
%ADD38R,0.500000X1.005599*%
G04 #@! TD*
G04 #@! TA.AperFunction,SMDPad,CuDef*
%ADD39FreePoly0,90.000000*%
G04 #@! TD*
G04 #@! TA.AperFunction,SMDPad,CuDef*
%ADD40FreePoly1,90.000000*%
G04 #@! TD*
G04 #@! TA.AperFunction,SMDPad,CuDef*
%ADD41R,1.450000X0.600000*%
G04 #@! TD*
G04 #@! TA.AperFunction,SMDPad,CuDef*
%ADD42R,1.450000X0.300000*%
G04 #@! TD*
G04 #@! TA.AperFunction,ComponentPad*
%ADD43O,2.100000X1.000000*%
G04 #@! TD*
G04 #@! TA.AperFunction,ComponentPad*
%ADD44O,1.600000X1.000000*%
G04 #@! TD*
G04 #@! TA.AperFunction,SMDPad,CuDef*
%ADD45RoundRect,0.200000X0.275000X-0.200000X0.275000X0.200000X-0.275000X0.200000X-0.275000X-0.200000X0*%
G04 #@! TD*
G04 #@! TA.AperFunction,SMDPad,CuDef*
%ADD46RoundRect,0.062500X0.350000X0.062500X-0.350000X0.062500X-0.350000X-0.062500X0.350000X-0.062500X0*%
G04 #@! TD*
G04 #@! TA.AperFunction,SMDPad,CuDef*
%ADD47RoundRect,0.062500X0.062500X0.350000X-0.062500X0.350000X-0.062500X-0.350000X0.062500X-0.350000X0*%
G04 #@! TD*
G04 #@! TA.AperFunction,SMDPad,CuDef*
%ADD48R,2.600000X2.600000*%
G04 #@! TD*
G04 #@! TA.AperFunction,SMDPad,CuDef*
%ADD49RoundRect,0.250000X0.250000X0.475000X-0.250000X0.475000X-0.250000X-0.475000X0.250000X-0.475000X0*%
G04 #@! TD*
G04 #@! TA.AperFunction,SMDPad,CuDef*
%ADD50RoundRect,0.200000X-0.200000X-0.800000X0.200000X-0.800000X0.200000X0.800000X-0.200000X0.800000X0*%
G04 #@! TD*
G04 #@! TA.AperFunction,SMDPad,CuDef*
%ADD51RoundRect,0.150000X-0.587500X-0.150000X0.587500X-0.150000X0.587500X0.150000X-0.587500X0.150000X0*%
G04 #@! TD*
G04 #@! TA.AperFunction,SMDPad,CuDef*
%ADD52RoundRect,0.200000X-0.275000X0.200000X-0.275000X-0.200000X0.275000X-0.200000X0.275000X0.200000X0*%
G04 #@! TD*
G04 #@! TA.AperFunction,ComponentPad*
%ADD53R,1.150000X1.150000*%
G04 #@! TD*
G04 #@! TA.AperFunction,ComponentPad*
%ADD54C,1.150000*%
G04 #@! TD*
G04 #@! TA.AperFunction,SMDPad,CuDef*
%ADD55RoundRect,0.150000X0.150000X-0.512500X0.150000X0.512500X-0.150000X0.512500X-0.150000X-0.512500X0*%
G04 #@! TD*
G04 #@! TA.AperFunction,SMDPad,CuDef*
%ADD56RoundRect,0.250000X0.475000X-0.250000X0.475000X0.250000X-0.475000X0.250000X-0.475000X-0.250000X0*%
G04 #@! TD*
G04 #@! TA.AperFunction,ViaPad*
%ADD57C,0.500000*%
G04 #@! TD*
G04 #@! TA.AperFunction,ViaPad*
%ADD58C,0.800000*%
G04 #@! TD*
G04 #@! TA.AperFunction,ViaPad*
%ADD59C,0.600000*%
G04 #@! TD*
G04 #@! TA.AperFunction,Conductor*
%ADD60C,0.400000*%
G04 #@! TD*
G04 #@! TA.AperFunction,Conductor*
%ADD61C,0.300000*%
G04 #@! TD*
G04 #@! TA.AperFunction,Conductor*
%ADD62C,0.600000*%
G04 #@! TD*
G04 #@! TA.AperFunction,Conductor*
%ADD63C,0.250000*%
G04 #@! TD*
G04 #@! TA.AperFunction,Conductor*
%ADD64C,0.200000*%
G04 #@! TD*
G04 APERTURE END LIST*
D10*
X80587500Y-77750000D02*
X76962500Y-77750000D01*
X76962500Y-77750000D02*
X76962500Y-77575000D01*
X76962500Y-77575000D02*
X80587500Y-77575000D01*
X80587500Y-77575000D02*
X80587500Y-77750000D01*
X80587500Y-84775000D02*
X76962500Y-84775000D01*
X76962500Y-84775000D02*
X76962500Y-84600000D01*
X76962500Y-84600000D02*
X80587500Y-84600000D01*
X80587500Y-84600000D02*
X80587500Y-84775000D01*
G36*
X105825000Y-73850000D02*
G01*
X105325000Y-73850000D01*
X105325000Y-73250000D01*
X105825000Y-73250000D01*
X105825000Y-73850000D01*
G37*
D11*
X100425000Y-73405000D03*
X100425000Y-72135000D03*
X100425000Y-70865000D03*
X100425000Y-69595000D03*
X95025000Y-69595000D03*
X95025000Y-70865000D03*
X95025000Y-72135000D03*
X95025000Y-73405000D03*
D12*
X97725000Y-71500000D03*
D13*
X88600000Y-66050000D03*
X88600000Y-67950000D03*
D14*
X112775000Y-51687500D03*
X110875000Y-51687500D03*
X111825000Y-53562500D03*
D15*
X85800000Y-67625000D03*
X85800000Y-64325000D03*
D16*
X106225000Y-73550000D03*
D17*
X104925000Y-73550000D03*
D18*
X108175000Y-57662500D03*
X108175000Y-54587500D03*
D19*
X139350000Y-79125000D03*
X141250000Y-79125000D03*
D20*
X139350000Y-57525000D03*
D21*
X102250000Y-52350000D03*
X100600000Y-52350000D03*
X141500000Y-72675000D03*
X139850000Y-72675000D03*
D19*
X89000000Y-62875000D03*
X90900000Y-62875000D03*
D22*
X93025000Y-76200000D03*
D23*
X93025000Y-78740000D03*
X93025000Y-81280000D03*
D24*
X129225000Y-82175150D03*
X129225000Y-86124850D03*
D25*
X135825000Y-68475000D03*
D26*
X137375000Y-85025000D03*
X139025000Y-85025000D03*
D15*
X133450000Y-85300000D03*
X133450000Y-82000000D03*
D21*
X144325000Y-57800000D03*
X142675000Y-57800000D03*
D22*
X115125000Y-82600000D03*
D23*
X112585000Y-82600000D03*
X110045000Y-82600000D03*
X107505000Y-82600000D03*
X104965000Y-82600000D03*
X102425000Y-82600000D03*
X99885000Y-82600000D03*
D27*
X85412500Y-70375000D03*
X87287500Y-70375000D03*
D28*
X92800000Y-58930000D03*
X92800000Y-57660000D03*
X92800000Y-56390000D03*
X92800000Y-55120000D03*
X87850000Y-55120000D03*
X87850000Y-56390000D03*
X87850000Y-57660000D03*
X87850000Y-58930000D03*
D19*
X107225000Y-59750000D03*
X109125000Y-59750000D03*
D20*
X136750000Y-75625000D03*
D29*
X82082500Y-82425000D03*
D30*
X82082500Y-79925000D03*
D26*
X137875000Y-83175000D03*
X139525000Y-83175000D03*
D27*
X85412500Y-72725000D03*
X87287500Y-72725000D03*
D26*
X101900000Y-62025000D03*
X103550000Y-62025000D03*
D31*
X115269100Y-55196300D03*
X115269100Y-56466300D03*
X115269100Y-57736300D03*
X115269100Y-59006300D03*
X115269100Y-60276300D03*
X115269100Y-61546300D03*
X115269100Y-62816300D03*
X115269100Y-64086300D03*
X115269100Y-65356300D03*
X115269100Y-66626300D03*
X115269100Y-67896300D03*
X115269100Y-69166300D03*
X115269100Y-70436300D03*
X115269100Y-71706300D03*
D32*
X116865000Y-72780900D03*
X118135000Y-72780900D03*
X119405000Y-72780900D03*
X120675000Y-72780900D03*
X121945000Y-72780900D03*
X123215000Y-72780900D03*
X124485000Y-72780900D03*
X125755000Y-72780900D03*
X127025000Y-72780900D03*
X128295000Y-72780900D03*
X129565000Y-72780900D03*
X130835000Y-72780900D03*
D31*
X132430900Y-71706300D03*
X132430900Y-70436300D03*
X132430900Y-69166300D03*
X132430900Y-67896300D03*
X132430900Y-66626300D03*
X132430900Y-65356300D03*
X132430900Y-64086300D03*
X132430900Y-62816300D03*
X132430900Y-61546300D03*
X132430900Y-60276300D03*
X132430900Y-59006300D03*
X132430900Y-57736300D03*
X132430900Y-56466300D03*
X132430900Y-55196300D03*
D33*
X122354301Y-62910800D03*
D34*
X137687500Y-72650000D03*
X137687500Y-70750000D03*
X135812500Y-71700000D03*
D35*
X100000002Y-64149999D03*
X100000002Y-63499998D03*
X100000002Y-62849999D03*
X100000002Y-62199998D03*
X94100001Y-62199998D03*
X94100001Y-62849999D03*
X94100001Y-63499998D03*
X94100001Y-64149999D03*
D20*
X136075000Y-57525000D03*
D22*
X80150000Y-64575000D03*
D23*
X80150000Y-67115000D03*
X80150000Y-69655000D03*
X80150000Y-72195000D03*
D36*
X132100000Y-77950000D03*
D37*
X130830000Y-77950000D03*
X129560000Y-77950000D03*
X128290000Y-77950000D03*
X127020000Y-77950000D03*
D38*
X125350001Y-82797201D03*
X124400000Y-82797201D03*
X123449999Y-82797201D03*
X123449999Y-85502799D03*
X125350001Y-85502799D03*
D21*
X106575000Y-71200000D03*
X104925000Y-71200000D03*
D39*
X152575000Y-70500000D03*
D40*
X152575000Y-69200000D03*
D41*
X80390000Y-52970000D03*
X80390000Y-53770000D03*
D42*
X80390000Y-54970000D03*
X80390000Y-55970000D03*
X80390000Y-56470000D03*
X80390000Y-57470000D03*
D41*
X80390000Y-58670000D03*
X80390000Y-59470000D03*
X80390000Y-59470000D03*
X80390000Y-58670000D03*
D42*
X80390000Y-57970000D03*
X80390000Y-56970000D03*
X80390000Y-55470000D03*
X80390000Y-54470000D03*
D41*
X80390000Y-53770000D03*
X80390000Y-52970000D03*
D43*
X79475000Y-51900000D03*
D44*
X75295000Y-60540000D03*
D43*
X79475000Y-60540000D03*
D44*
X75295000Y-51900000D03*
D45*
X106425000Y-66325000D03*
X106425000Y-64675000D03*
D46*
X142087500Y-62745000D03*
X142087500Y-62245000D03*
X142087500Y-61745000D03*
X142087500Y-61245000D03*
X142087500Y-60745000D03*
X142087500Y-60245000D03*
D47*
X141400000Y-59557500D03*
X140900000Y-59557500D03*
X140400000Y-59557500D03*
X139900000Y-59557500D03*
X139400000Y-59557500D03*
X138900000Y-59557500D03*
D46*
X138212500Y-60245000D03*
X138212500Y-60745000D03*
X138212500Y-61245000D03*
X138212500Y-61745000D03*
X138212500Y-62245000D03*
X138212500Y-62745000D03*
D47*
X138900000Y-63432500D03*
X139400000Y-63432500D03*
X139900000Y-63432500D03*
X140400000Y-63432500D03*
X140900000Y-63432500D03*
X141400000Y-63432500D03*
D48*
X140150000Y-61495000D03*
D49*
X139325000Y-87750000D03*
X137425000Y-87750000D03*
D45*
X105650000Y-52850000D03*
X105650000Y-51200000D03*
D41*
X146905000Y-63325000D03*
X146905000Y-62525000D03*
D42*
X146905000Y-61325000D03*
X146905000Y-60325000D03*
X146905000Y-59825000D03*
X146905000Y-58825000D03*
D41*
X146905000Y-57625000D03*
X146905000Y-56825000D03*
X146905000Y-56825000D03*
X146905000Y-57625000D03*
D42*
X146905000Y-58325000D03*
X146905000Y-59325000D03*
X146905000Y-60825000D03*
X146905000Y-61825000D03*
D41*
X146905000Y-62525000D03*
X146905000Y-63325000D03*
D43*
X147820000Y-55755000D03*
X147820000Y-64395000D03*
D44*
X152000000Y-55755000D03*
X152000000Y-64395000D03*
D50*
X99775000Y-49675000D03*
X103975000Y-49675000D03*
D45*
X137675000Y-68925000D03*
X137675000Y-67275000D03*
D22*
X102375000Y-87125000D03*
D23*
X104915000Y-87125000D03*
X107455000Y-87125000D03*
X109995000Y-87125000D03*
X112535000Y-87125000D03*
X115075000Y-87125000D03*
D26*
X110825000Y-61825000D03*
X112475000Y-61825000D03*
D45*
X103075000Y-71800000D03*
X103075000Y-70150000D03*
D26*
X89750000Y-70600000D03*
X91400000Y-70600000D03*
D51*
X103412500Y-55925000D03*
X103412500Y-57825000D03*
X105287500Y-56875000D03*
D52*
X142050000Y-66125000D03*
X142050000Y-67775000D03*
D20*
X87100000Y-50850000D03*
D53*
X74875000Y-72044989D03*
D54*
X74875000Y-70044988D03*
X74875000Y-68044989D03*
X74875000Y-66044988D03*
D52*
X103750000Y-64575000D03*
X103750000Y-66225000D03*
D26*
X89750000Y-72150000D03*
X91400000Y-72150000D03*
D55*
X135700000Y-81332500D03*
X136650000Y-81332500D03*
X137600000Y-81332500D03*
X137600000Y-79057500D03*
X136650000Y-79057500D03*
X135700000Y-79057500D03*
D21*
X98975000Y-52350000D03*
X97325000Y-52350000D03*
D45*
X107950000Y-64875000D03*
X107950000Y-63225000D03*
D56*
X100575000Y-57850000D03*
X100575000Y-55950000D03*
D49*
X140125000Y-53625000D03*
X138225000Y-53625000D03*
D56*
X94075000Y-67550000D03*
X94075000Y-65650000D03*
D22*
X146100000Y-68325000D03*
D23*
X146100000Y-70865000D03*
X146100000Y-73405000D03*
X146100000Y-75945000D03*
D57*
X104475000Y-62050000D03*
D58*
X98350000Y-63750000D03*
X102600000Y-76275000D03*
D59*
X136325000Y-87725000D03*
D58*
X145025000Y-63575000D03*
D59*
X120875000Y-61450000D03*
D58*
X110400000Y-59875000D03*
X145750000Y-54300000D03*
D59*
X123850000Y-64400000D03*
D58*
X103300000Y-52600000D03*
D59*
X99450000Y-55475000D03*
D58*
X141700000Y-56450000D03*
X101950000Y-70450000D03*
D59*
X92650000Y-67675000D03*
D57*
X89450000Y-65000000D03*
D58*
X134650000Y-55200000D03*
X113950000Y-54875000D03*
D59*
X136375000Y-83850000D03*
X89150000Y-61400000D03*
D58*
X96300002Y-62199998D03*
X86175000Y-55100000D03*
D59*
X123850000Y-61425000D03*
X120850000Y-64400000D03*
X124400000Y-81025000D03*
D58*
X141225000Y-81175000D03*
X88525000Y-72525000D03*
X88450000Y-75275000D03*
X96900000Y-56800000D03*
D59*
X92700000Y-69400000D03*
D58*
X85300000Y-76850000D03*
D59*
X92150001Y-62849999D03*
X92150000Y-65500000D03*
D58*
X144900000Y-60075000D03*
X144250000Y-61750000D03*
D57*
X145100000Y-62200000D03*
X142100000Y-65200000D03*
X108900000Y-63525000D03*
X108875000Y-66425000D03*
X109450000Y-66025000D03*
X109450000Y-64100000D03*
X106450000Y-62900000D03*
X108175000Y-61125000D03*
X106150000Y-59775000D03*
D58*
X99400000Y-66225000D03*
D59*
X122175000Y-85400000D03*
D57*
X101675000Y-65425000D03*
D58*
X94600000Y-58350000D03*
D59*
X97700000Y-58075000D03*
D58*
X111287500Y-57662500D03*
D57*
X109800000Y-61550000D03*
X106725000Y-63625000D03*
D58*
X99850000Y-53650000D03*
X113300000Y-58425000D03*
X86175000Y-56300000D03*
X86175000Y-57650000D03*
D57*
X102400000Y-67350000D03*
D58*
X86175000Y-58925000D03*
D57*
X118525000Y-75725000D03*
X119750000Y-79975000D03*
X123550000Y-74625000D03*
X116150000Y-78075000D03*
D59*
X125775000Y-86700000D03*
X134250000Y-66625000D03*
X135675000Y-64500000D03*
D58*
X125337500Y-54162500D03*
D59*
X140050000Y-85050000D03*
D58*
X139025000Y-81275000D03*
X111025000Y-49950000D03*
X141500000Y-69075000D03*
X139750000Y-67275000D03*
X94575000Y-56025000D03*
X113725000Y-61525000D03*
X139650000Y-65975000D03*
X134225000Y-59000000D03*
X134200000Y-60275000D03*
X140125000Y-65000000D03*
D59*
X135875000Y-85025000D03*
X140600000Y-87750000D03*
X102700000Y-63250000D03*
X121975000Y-80650000D03*
D60*
X103412500Y-55925000D02*
X100600000Y-55925000D01*
X81375000Y-59900000D02*
X81375000Y-60225000D01*
D61*
X142087500Y-62245000D02*
X140900000Y-62245000D01*
D60*
X86195000Y-55120000D02*
X86175000Y-55100000D01*
D61*
X141700000Y-56825000D02*
X141700000Y-56450000D01*
D62*
X123850000Y-61425000D02*
X123850000Y-60550000D01*
X141225000Y-81175000D02*
X141225000Y-82550000D01*
X140600000Y-83175000D02*
X139525000Y-83175000D01*
X110425000Y-54875000D02*
X113950000Y-54875000D01*
X134646300Y-55196300D02*
X134650000Y-55200000D01*
D60*
X101830000Y-73405000D02*
X102300000Y-73875000D01*
X100575000Y-55950000D02*
X99925000Y-55950000D01*
D62*
X141225000Y-82550000D02*
X140600000Y-83175000D01*
D60*
X102300000Y-75975000D02*
X102600000Y-76275000D01*
X101125000Y-49675000D02*
X99775000Y-49675000D01*
D62*
X124400000Y-82797201D02*
X124400000Y-81025000D01*
D60*
X81060000Y-60540000D02*
X79475000Y-60540000D01*
X74875000Y-66044988D02*
X76539988Y-66044988D01*
D61*
X140900000Y-62245000D02*
X140150000Y-61495000D01*
D60*
X102250000Y-50800000D02*
X101125000Y-49675000D01*
X80945000Y-59470000D02*
X81375000Y-59900000D01*
D62*
X145275000Y-63325000D02*
X145025000Y-63575000D01*
X141250000Y-79125000D02*
X141250000Y-81150000D01*
D60*
X102250000Y-52350000D02*
X102250000Y-50800000D01*
D62*
X132430900Y-55196300D02*
X134646300Y-55196300D01*
D60*
X87850000Y-55120000D02*
X86195000Y-55120000D01*
X101535000Y-70865000D02*
X101950000Y-70450000D01*
D62*
X108175000Y-54587500D02*
X110137500Y-54587500D01*
D60*
X104575000Y-73875000D02*
X104975000Y-73475000D01*
X146350000Y-56825000D02*
X145750000Y-56225000D01*
D62*
X94075000Y-67550000D02*
X92775000Y-67550000D01*
X137425000Y-87750000D02*
X136350000Y-87750000D01*
D60*
X102300000Y-73875000D02*
X104575000Y-73875000D01*
X88600000Y-65850000D02*
X89450000Y-65000000D01*
D63*
X144675000Y-63575000D02*
X145025000Y-63575000D01*
D61*
X142087500Y-62245000D02*
X143445000Y-62245000D01*
D60*
X100600000Y-55925000D02*
X100575000Y-55950000D01*
D63*
X142200000Y-67775000D02*
X142875000Y-67100000D01*
D61*
X144750000Y-62825000D02*
X145025000Y-63100000D01*
D60*
X99925000Y-55950000D02*
X99450000Y-55475000D01*
X76539988Y-66044988D02*
X80150000Y-69655000D01*
X102300000Y-73875000D02*
X102300000Y-75975000D01*
D62*
X110137500Y-54587500D02*
X110425000Y-54875000D01*
X92775000Y-67550000D02*
X92650000Y-67675000D01*
D61*
X142675000Y-57800000D02*
X141700000Y-56825000D01*
D62*
X114271300Y-55196300D02*
X113950000Y-54875000D01*
D60*
X104925000Y-73550000D02*
X104925000Y-71200000D01*
X100000002Y-63499998D02*
X98600002Y-63499998D01*
D63*
X142875000Y-67100000D02*
X142875000Y-65375000D01*
D61*
X145025000Y-63100000D02*
X145025000Y-63575000D01*
X143445000Y-62245000D02*
X144025000Y-62825000D01*
D62*
X136650000Y-83575000D02*
X136375000Y-83850000D01*
D60*
X96300002Y-62199998D02*
X96799998Y-62199998D01*
X103050000Y-52350000D02*
X103300000Y-52600000D01*
D62*
X136225000Y-53625000D02*
X134650000Y-55200000D01*
X141250000Y-81150000D02*
X141225000Y-81175000D01*
D61*
X104450000Y-62025000D02*
X104475000Y-62050000D01*
D63*
X142050000Y-67775000D02*
X142200000Y-67775000D01*
D60*
X146905000Y-56825000D02*
X146350000Y-56825000D01*
D62*
X129203700Y-55196300D02*
X132430900Y-55196300D01*
D60*
X89000000Y-62875000D02*
X89000000Y-61550000D01*
X100425000Y-73405000D02*
X101830000Y-73405000D01*
D62*
X123850000Y-60550000D02*
X129203700Y-55196300D01*
D60*
X80390000Y-52815000D02*
X79475000Y-51900000D01*
X94100001Y-62199998D02*
X96300002Y-62199998D01*
X102250000Y-52350000D02*
X103050000Y-52350000D01*
D62*
X109125000Y-59750000D02*
X110275000Y-59750000D01*
X115269100Y-55196300D02*
X114271300Y-55196300D01*
D60*
X98600002Y-63499998D02*
X98350000Y-63750000D01*
D62*
X110275000Y-59750000D02*
X110400000Y-59875000D01*
D61*
X103550000Y-62025000D02*
X104450000Y-62025000D01*
D60*
X145750000Y-56225000D02*
X145750000Y-54300000D01*
X88600000Y-66050000D02*
X88600000Y-65850000D01*
D62*
X136650000Y-81332500D02*
X136650000Y-83575000D01*
D60*
X81375000Y-60225000D02*
X81060000Y-60540000D01*
D62*
X138225000Y-53625000D02*
X136225000Y-53625000D01*
D60*
X96799998Y-62199998D02*
X98350000Y-63750000D01*
X89000000Y-61550000D02*
X89150000Y-61400000D01*
D61*
X144025000Y-62825000D02*
X144750000Y-62825000D01*
D63*
X142875000Y-65375000D02*
X144675000Y-63575000D01*
D62*
X136350000Y-87750000D02*
X136325000Y-87725000D01*
X146905000Y-63325000D02*
X145275000Y-63325000D01*
D60*
X100425000Y-70865000D02*
X101535000Y-70865000D01*
X100425000Y-72135000D02*
X102740000Y-72135000D01*
X102740000Y-72135000D02*
X103075000Y-71800000D01*
X107625000Y-69625000D02*
X107625000Y-73850000D01*
X95025000Y-73405000D02*
X91545000Y-73405000D01*
X87487500Y-72525000D02*
X87287500Y-72725000D01*
X88525000Y-72525000D02*
X87487500Y-72525000D01*
X102100000Y-69125000D02*
X107125000Y-69125000D01*
X100425000Y-69595000D02*
X101630000Y-69595000D01*
X88450000Y-75275000D02*
X90320000Y-73405000D01*
D62*
X85800000Y-68887500D02*
X87287500Y-70375000D01*
D60*
X90320000Y-73405000D02*
X91545000Y-73405000D01*
X107125000Y-69125000D02*
X107625000Y-69625000D01*
D62*
X85800000Y-67625000D02*
X85800000Y-68887500D01*
D60*
X103575000Y-77900000D02*
X99520000Y-77900000D01*
X101630000Y-69595000D02*
X102100000Y-69125000D01*
X99520000Y-77900000D02*
X95025000Y-73405000D01*
D62*
X87287500Y-72725000D02*
X87287500Y-70375000D01*
D60*
X107625000Y-73850000D02*
X103575000Y-77900000D01*
D62*
X92150000Y-66625000D02*
X90825000Y-67950000D01*
X82225000Y-79925000D02*
X82082500Y-79925000D01*
D60*
X96900000Y-52775000D02*
X97325000Y-52350000D01*
D62*
X95025000Y-69595000D02*
X92895000Y-69595000D01*
X92895000Y-69595000D02*
X92700000Y-69400000D01*
D60*
X90925001Y-62849999D02*
X90900000Y-62875000D01*
D62*
X92150000Y-65500000D02*
X92150000Y-66625000D01*
X92275000Y-69400000D02*
X90825000Y-67950000D01*
X92700000Y-69400000D02*
X92275000Y-69400000D01*
X85300000Y-76850000D02*
X82225000Y-79925000D01*
D60*
X96900000Y-56800000D02*
X96900000Y-52775000D01*
X94100001Y-62849999D02*
X92150001Y-62849999D01*
X92150001Y-62849999D02*
X90925001Y-62849999D01*
D62*
X90825000Y-67950000D02*
X88600000Y-67950000D01*
X95025000Y-70865000D02*
X91665000Y-70865000D01*
X91665000Y-70865000D02*
X91400000Y-70600000D01*
X91400000Y-72150000D02*
X95010000Y-72150000D01*
X95010000Y-72150000D02*
X95025000Y-72135000D01*
D63*
X147975000Y-59325000D02*
X148225000Y-59575000D01*
X148225000Y-59575000D02*
X148225000Y-60100000D01*
X142092500Y-61750000D02*
X142087500Y-61745000D01*
X146905000Y-59325000D02*
X147975000Y-59325000D01*
X148225000Y-60100000D02*
X148000000Y-60325000D01*
X146905000Y-60325000D02*
X145150000Y-60325000D01*
X148000000Y-60325000D02*
X146905000Y-60325000D01*
X144250000Y-61750000D02*
X142092500Y-61750000D01*
X145150000Y-60325000D02*
X144900000Y-60075000D01*
D61*
X146905000Y-61325000D02*
X145975000Y-61325000D01*
X142050000Y-65250000D02*
X142050000Y-66125000D01*
X142100000Y-65200000D02*
X142050000Y-65250000D01*
X145975000Y-61325000D02*
X145100000Y-62200000D01*
X144300000Y-59250000D02*
X143975000Y-59575000D01*
X146905000Y-60825000D02*
X144100000Y-60825000D01*
X142087500Y-61245000D02*
X143680000Y-61245000D01*
X145200000Y-59250000D02*
X144300000Y-59250000D01*
X146905000Y-59825000D02*
X145775000Y-59825000D01*
X145775000Y-59825000D02*
X145200000Y-59250000D01*
X143975000Y-60700000D02*
X144100000Y-60825000D01*
X143680000Y-61245000D02*
X144100000Y-60825000D01*
X143975000Y-59575000D02*
X143975000Y-60700000D01*
D63*
X144850000Y-58325000D02*
X144325000Y-57800000D01*
X146905000Y-58325000D02*
X144850000Y-58325000D01*
D64*
X84850000Y-56650000D02*
X84555000Y-56945000D01*
X104350000Y-61000000D02*
X97650000Y-61000000D01*
X85775000Y-48800000D02*
X85775000Y-53525000D01*
X85775000Y-53525000D02*
X84850000Y-54450000D01*
X84555000Y-56945000D02*
X80415000Y-56945000D01*
X108975000Y-63450000D02*
X108975000Y-62550000D01*
X94575000Y-48500000D02*
X86075000Y-48500000D01*
X108875000Y-66425000D02*
X108875000Y-70725000D01*
X97650000Y-61000000D02*
X95300000Y-58650000D01*
X84850000Y-54450000D02*
X84850000Y-56300000D01*
X108725000Y-62300000D02*
X105650000Y-62300000D01*
X80415000Y-55945000D02*
X80390000Y-55970000D01*
X109856300Y-71706300D02*
X115269100Y-71706300D01*
X80415000Y-56945000D02*
X80390000Y-56970000D01*
X108875000Y-70725000D02*
X109856300Y-71706300D01*
X108900000Y-63525000D02*
X108975000Y-63450000D01*
X95300000Y-49225000D02*
X94575000Y-48500000D01*
X84850000Y-56300000D02*
X84495000Y-55945000D01*
X108975000Y-62550000D02*
X108725000Y-62300000D01*
X86075000Y-48500000D02*
X85775000Y-48800000D01*
X84850000Y-56300000D02*
X84850000Y-56650000D01*
X95300000Y-58650000D02*
X95300000Y-49225000D01*
X84495000Y-55945000D02*
X80415000Y-55945000D01*
X105650000Y-62300000D02*
X104350000Y-61000000D01*
X85325000Y-48600000D02*
X85325000Y-52550000D01*
X80415000Y-55445000D02*
X80390000Y-55470000D01*
X78680000Y-55470000D02*
X78425000Y-55725000D01*
X94925000Y-48075000D02*
X85850000Y-48075000D01*
X78670000Y-56470000D02*
X80390000Y-56470000D01*
X109450000Y-62275000D02*
X108850000Y-61675000D01*
X109450000Y-69675000D02*
X110211300Y-70436300D01*
X110211300Y-70436300D02*
X115269100Y-70436300D01*
X96000000Y-58125000D02*
X96000000Y-49150000D01*
X108850000Y-61675000D02*
X105775000Y-61675000D01*
X84450000Y-55100000D02*
X84105000Y-55445000D01*
X96000000Y-49150000D02*
X94925000Y-48075000D01*
X84105000Y-55445000D02*
X80415000Y-55445000D01*
X78425000Y-55725000D02*
X78425000Y-56225000D01*
X109450000Y-64100000D02*
X109450000Y-62275000D01*
X109450000Y-66025000D02*
X109450000Y-69675000D01*
X98325000Y-60450000D02*
X96000000Y-58125000D01*
X85325000Y-52550000D02*
X84450000Y-53425000D01*
X105775000Y-61675000D02*
X104550000Y-60450000D01*
X84450000Y-53425000D02*
X84450000Y-55100000D01*
X85850000Y-48075000D02*
X85325000Y-48600000D01*
X80390000Y-55470000D02*
X78680000Y-55470000D01*
X78425000Y-56225000D02*
X78670000Y-56470000D01*
X104550000Y-60450000D02*
X98325000Y-60450000D01*
D60*
X103750000Y-64575000D02*
X104775000Y-64575000D01*
X104775000Y-64575000D02*
X106450000Y-62900000D01*
X100949999Y-64149999D02*
X101375000Y-64575000D01*
D61*
X111298700Y-60276300D02*
X110725000Y-60850000D01*
X108450000Y-60850000D02*
X108175000Y-61125000D01*
D60*
X101375000Y-64575000D02*
X103750000Y-64575000D01*
X100000002Y-64149999D02*
X100949999Y-64149999D01*
D61*
X110725000Y-60850000D02*
X108450000Y-60850000D01*
X115269100Y-60276300D02*
X111298700Y-60276300D01*
D60*
X100000002Y-62199998D02*
X101725002Y-62199998D01*
X101725002Y-62199998D02*
X101900000Y-62025000D01*
X102475000Y-66225000D02*
X101675000Y-65425000D01*
D62*
X125350001Y-84550001D02*
X125350001Y-85502799D01*
X122550000Y-84125000D02*
X124925000Y-84125000D01*
X122175000Y-85400000D02*
X122175000Y-84500000D01*
D60*
X105287500Y-58512500D02*
X105287500Y-56875000D01*
X107225000Y-59750000D02*
X106525000Y-59750000D01*
D62*
X96375000Y-65850000D02*
X96750000Y-66225000D01*
D60*
X106150000Y-59775000D02*
X106175000Y-59750000D01*
X103750000Y-66225000D02*
X102475000Y-66225000D01*
D62*
X96375000Y-64200000D02*
X96375000Y-65850000D01*
X95674998Y-63499998D02*
X96375000Y-64200000D01*
D60*
X106525000Y-59750000D02*
X105287500Y-58512500D01*
D62*
X96750000Y-66225000D02*
X99400000Y-66225000D01*
X99400000Y-66225000D02*
X103750000Y-66225000D01*
D60*
X94100001Y-63499998D02*
X95674998Y-63499998D01*
D62*
X124925000Y-84125000D02*
X125350001Y-84550001D01*
X122175000Y-84500000D02*
X122550000Y-84125000D01*
D60*
X106175000Y-59750000D02*
X106525000Y-59750000D01*
D62*
X137250000Y-77375000D02*
X138425000Y-76200000D01*
X125875000Y-80825000D02*
X125350001Y-81349999D01*
X125350001Y-81349999D02*
X125350001Y-82797201D01*
X134325000Y-79900000D02*
X133400000Y-80825000D01*
X133400000Y-80825000D02*
X130300000Y-80825000D01*
X137600000Y-77825000D02*
X137600000Y-79057500D01*
X136650000Y-77875000D02*
X136650000Y-79057500D01*
X126800000Y-86950000D02*
X127075000Y-87225000D01*
X137150000Y-77375000D02*
X137250000Y-77375000D01*
X138425000Y-76200000D02*
X138950000Y-76200000D01*
X125350001Y-82797201D02*
X126147201Y-82797201D01*
X139350000Y-76600000D02*
X139350000Y-79125000D01*
X127075000Y-87225000D02*
X129575000Y-87225000D01*
X126147201Y-82797201D02*
X126800000Y-83450000D01*
X126800000Y-83450000D02*
X126800000Y-86950000D01*
X138950000Y-76200000D02*
X139350000Y-76600000D01*
X134700000Y-77875000D02*
X134325000Y-78250000D01*
X137150000Y-77375000D02*
X136650000Y-77875000D01*
X136650000Y-77875000D02*
X134700000Y-77875000D01*
X137150000Y-77375000D02*
X137600000Y-77825000D01*
X134325000Y-78250000D02*
X134325000Y-79900000D01*
X129575000Y-87225000D02*
X129575000Y-86474850D01*
X130300000Y-80825000D02*
X125875000Y-80825000D01*
D60*
X103412500Y-57825000D02*
X100600000Y-57825000D01*
X98525000Y-54575000D02*
X105525000Y-54575000D01*
X107000000Y-56050000D02*
X107600000Y-56050000D01*
X92800000Y-57660000D02*
X93910000Y-57660000D01*
D61*
X106725000Y-63625000D02*
X106425000Y-63925000D01*
D60*
X107600000Y-56050000D02*
X108175000Y-56625000D01*
D61*
X107125000Y-63225000D02*
X106725000Y-63625000D01*
D63*
X110075000Y-61825000D02*
X109800000Y-61550000D01*
X110825000Y-61825000D02*
X110075000Y-61825000D01*
D60*
X97925000Y-55175000D02*
X98525000Y-54575000D01*
X97925000Y-57850000D02*
X97700000Y-58075000D01*
X74875000Y-68044989D02*
X75999989Y-68044989D01*
X75999989Y-68044989D02*
X80150000Y-72195000D01*
X93910000Y-57660000D02*
X94600000Y-58350000D01*
X115269100Y-56466300D02*
X113258700Y-56466300D01*
X108175000Y-56625000D02*
X108175000Y-57662500D01*
X100600000Y-57825000D02*
X100575000Y-57850000D01*
X113258700Y-56466300D02*
X112062500Y-57662500D01*
X105525000Y-54575000D02*
X105650000Y-54700000D01*
X105650000Y-54700000D02*
X107000000Y-56050000D01*
X112062500Y-57662500D02*
X111287500Y-57662500D01*
X97925000Y-57850000D02*
X97925000Y-55175000D01*
X105650000Y-52850000D02*
X105650000Y-54700000D01*
D61*
X107950000Y-63225000D02*
X107125000Y-63225000D01*
X106425000Y-63925000D02*
X106425000Y-64675000D01*
D60*
X100575000Y-57850000D02*
X97925000Y-57850000D01*
X111287500Y-57662500D02*
X108175000Y-57662500D01*
X109875000Y-53200000D02*
X110237500Y-53562500D01*
D63*
X116562500Y-53562500D02*
X111825000Y-53562500D01*
D60*
X109875000Y-51750000D02*
X109875000Y-53200000D01*
X110237500Y-53562500D02*
X111825000Y-53562500D01*
X105650000Y-51200000D02*
X109325000Y-51200000D01*
D63*
X117175000Y-57150000D02*
X117175000Y-54175000D01*
D60*
X105650000Y-51200000D02*
X105500000Y-51200000D01*
D63*
X116588700Y-57736300D02*
X117175000Y-57150000D01*
D60*
X105500000Y-51200000D02*
X103975000Y-49675000D01*
D63*
X117175000Y-54175000D02*
X116562500Y-53562500D01*
D60*
X109325000Y-51200000D02*
X109875000Y-51750000D01*
D63*
X115269100Y-57736300D02*
X116588700Y-57736300D01*
D60*
X99825000Y-52350000D02*
X99825000Y-53625000D01*
X113881300Y-59006300D02*
X115269100Y-59006300D01*
X99825000Y-52350000D02*
X100600000Y-52350000D01*
X98975000Y-52350000D02*
X99825000Y-52350000D01*
X113300000Y-58425000D02*
X113881300Y-59006300D01*
X99825000Y-53625000D02*
X99850000Y-53650000D01*
X86265000Y-56390000D02*
X86175000Y-56300000D01*
X87850000Y-56390000D02*
X86265000Y-56390000D01*
X87850000Y-57660000D02*
X86185000Y-57660000D01*
D61*
X86950000Y-75300000D02*
X83525000Y-75300000D01*
X107950000Y-64875000D02*
X107825000Y-64875000D01*
X83525000Y-75300000D02*
X82000000Y-73775000D01*
D60*
X86185000Y-57660000D02*
X86175000Y-57650000D01*
D61*
X107825000Y-64875000D02*
X107625000Y-65075000D01*
X112958700Y-62816300D02*
X115269100Y-62816300D01*
X107625000Y-65075000D02*
X107175000Y-65525000D01*
X104625000Y-67350000D02*
X102400000Y-67350000D01*
X86950000Y-75300000D02*
X87850000Y-76200000D01*
X82000000Y-73775000D02*
X82000000Y-65275000D01*
X104775000Y-66250000D02*
X104775000Y-67200000D01*
X107950000Y-64875000D02*
X110900000Y-64875000D01*
X104775000Y-67200000D02*
X104625000Y-67350000D01*
X81300000Y-64575000D02*
X80150000Y-64575000D01*
X107175000Y-65525000D02*
X105500000Y-65525000D01*
X82000000Y-65275000D02*
X81300000Y-64575000D01*
X87850000Y-76200000D02*
X93025000Y-76200000D01*
X110900000Y-64875000D02*
X112958700Y-62816300D01*
X105500000Y-65525000D02*
X104775000Y-66250000D01*
X94190000Y-78740000D02*
X95375000Y-79925000D01*
X108000000Y-66325000D02*
X106425000Y-66325000D01*
X95375000Y-79925000D02*
X95375000Y-82925000D01*
X103985000Y-78740000D02*
X108325000Y-74400000D01*
X95375000Y-82925000D02*
X94825000Y-83475000D01*
X90825000Y-83475000D02*
X90150000Y-82800000D01*
X115269100Y-64086300D02*
X112663700Y-64086300D01*
D60*
X87850000Y-58930000D02*
X86180000Y-58930000D01*
D61*
X90150000Y-82800000D02*
X90150000Y-79625000D01*
X93025000Y-78740000D02*
X103985000Y-78740000D01*
X93025000Y-78740000D02*
X94190000Y-78740000D01*
X112663700Y-64086300D02*
X111350000Y-65400000D01*
X86612500Y-76087500D02*
X76312500Y-76087500D01*
X76312500Y-76087500D02*
X74875000Y-74650000D01*
X111350000Y-65400000D02*
X108925000Y-65400000D01*
X108925000Y-65400000D02*
X108000000Y-66325000D01*
X74875000Y-74650000D02*
X74875000Y-72044989D01*
X108325000Y-74400000D02*
X108325000Y-68225000D01*
X108325000Y-68225000D02*
X106425000Y-66325000D01*
X90150000Y-79625000D02*
X86612500Y-76087500D01*
X94825000Y-83475000D02*
X90825000Y-83475000D01*
D60*
X86180000Y-58930000D02*
X86175000Y-58925000D01*
D63*
X133650000Y-79425000D02*
X132950000Y-80125000D01*
X116700000Y-87125000D02*
X115075000Y-87125000D01*
X123175000Y-80125000D02*
X122350000Y-79300000D01*
X119100000Y-79300000D02*
X117725000Y-80675000D01*
X117700000Y-71300000D02*
X130700000Y-71300000D01*
X117725000Y-86100000D02*
X117725000Y-80675000D01*
X133650000Y-74250000D02*
X133650000Y-79425000D01*
X132950000Y-80125000D02*
X123175000Y-80125000D01*
X130700000Y-71300000D02*
X133650000Y-74250000D01*
X122350000Y-79300000D02*
X119100000Y-79300000D01*
X117725000Y-86100000D02*
X116700000Y-87125000D01*
X116865000Y-72780900D02*
X116865000Y-72135000D01*
X116865000Y-72135000D02*
X117700000Y-71300000D01*
X115900000Y-77450000D02*
X119405000Y-73945000D01*
X119405000Y-73945000D02*
X119405000Y-72780900D01*
X104915000Y-79235000D02*
X106700000Y-77450000D01*
X106700000Y-77450000D02*
X115900000Y-77450000D01*
X104915000Y-82300000D02*
X104915000Y-79235000D01*
X118400000Y-80775000D02*
X119200000Y-79975000D01*
X120675000Y-73575000D02*
X118525000Y-75725000D01*
X104915000Y-87715000D02*
X105900000Y-88700000D01*
X118400000Y-82775000D02*
X118400000Y-80775000D01*
X118400000Y-87350000D02*
X117050000Y-88700000D01*
X119200000Y-79975000D02*
X119750000Y-79975000D01*
X105900000Y-88700000D02*
X116450000Y-88700000D01*
X117050000Y-88700000D02*
X116450000Y-88700000D01*
X120675000Y-72780900D02*
X120675000Y-73575000D01*
X104915000Y-87125000D02*
X104915000Y-87715000D01*
X118400000Y-82775000D02*
X118400000Y-87350000D01*
X111175000Y-78825000D02*
X116425000Y-78825000D01*
X109995000Y-82300000D02*
X109995000Y-87125000D01*
X109995000Y-80005000D02*
X111175000Y-78825000D01*
X116425000Y-78825000D02*
X121945000Y-73305000D01*
X121945000Y-73305000D02*
X121945000Y-72780900D01*
X109995000Y-82300000D02*
X109995000Y-80005000D01*
X117275000Y-79525000D02*
X123215000Y-73585000D01*
X112535000Y-82300000D02*
X112535000Y-87125000D01*
X123215000Y-73585000D02*
X123215000Y-72780900D01*
X112535000Y-80490000D02*
X113500000Y-79525000D01*
X112535000Y-82300000D02*
X112535000Y-80490000D01*
X113500000Y-79525000D02*
X117275000Y-79525000D01*
X109050000Y-78075000D02*
X116150000Y-78075000D01*
X107455000Y-82300000D02*
X107455000Y-87125000D01*
X107455000Y-82300000D02*
X107455000Y-79670000D01*
X123550000Y-74625000D02*
X124485000Y-73690000D01*
X107455000Y-79670000D02*
X109050000Y-78075000D01*
X124485000Y-73690000D02*
X124485000Y-72780900D01*
X123075000Y-76100000D02*
X121500000Y-76100000D01*
X125755000Y-73420000D02*
X123075000Y-76100000D01*
X115125000Y-82475000D02*
X115125000Y-82600000D01*
X125755000Y-72780900D02*
X125755000Y-73420000D01*
X121500000Y-76100000D02*
X115125000Y-82475000D01*
D60*
X127025000Y-77945000D02*
X127020000Y-77950000D01*
X127025000Y-72780900D02*
X127025000Y-77945000D01*
X128295000Y-77945000D02*
X128290000Y-77950000D01*
X128295000Y-72780900D02*
X128295000Y-77945000D01*
X130835000Y-77945000D02*
X130830000Y-77950000D01*
X130835000Y-72780900D02*
X130835000Y-77945000D01*
X129565000Y-77945000D02*
X129560000Y-77950000D01*
X129565000Y-72780900D02*
X129565000Y-77945000D01*
D61*
X132430900Y-71706300D02*
X135806200Y-71706300D01*
X135812500Y-74687500D02*
X136750000Y-75625000D01*
X135812500Y-71700000D02*
X135812500Y-74687500D01*
X135806200Y-71706300D02*
X135812500Y-71700000D01*
D60*
X123975000Y-86700000D02*
X125775000Y-86700000D01*
X132432200Y-66625000D02*
X132430900Y-66626300D01*
X123449999Y-86174999D02*
X123975000Y-86700000D01*
X123449999Y-85502799D02*
X123449999Y-86174999D01*
X135300000Y-66625000D02*
X134250000Y-66625000D01*
X135825000Y-67150000D02*
X135825000Y-68475000D01*
X135300000Y-66625000D02*
X135825000Y-67150000D01*
X134250000Y-66625000D02*
X132432200Y-66625000D01*
D62*
X129225000Y-81900000D02*
X129225000Y-82175150D01*
X135032500Y-82000000D02*
X135700000Y-81332500D01*
X133450000Y-82000000D02*
X129400150Y-82000000D01*
X133450000Y-82000000D02*
X135032500Y-82000000D01*
D61*
X139600000Y-68925000D02*
X140900000Y-67625000D01*
X137675000Y-68925000D02*
X139600000Y-68925000D01*
X137687500Y-68937500D02*
X137675000Y-68925000D01*
X137687500Y-70750000D02*
X137687500Y-68937500D01*
X140900000Y-67625000D02*
X140900000Y-63432500D01*
D63*
X124125000Y-52950000D02*
X125337500Y-54162500D01*
X113825000Y-52950000D02*
X124125000Y-52950000D01*
X135675000Y-64500000D02*
X137675000Y-66500000D01*
X137675000Y-66500000D02*
X137675000Y-67275000D01*
X112775000Y-51900000D02*
X113825000Y-52950000D01*
X112775000Y-51687500D02*
X112775000Y-51900000D01*
D62*
X84550000Y-65975000D02*
X84025000Y-66500000D01*
X87075000Y-68525000D02*
X87075000Y-66275000D01*
X84025000Y-70125000D02*
X84275000Y-70375000D01*
X88975000Y-70600000D02*
X88800000Y-70425000D01*
X88475000Y-69100000D02*
X87650000Y-69100000D01*
X84275000Y-70375000D02*
X85412500Y-70375000D01*
X84025000Y-66500000D02*
X84025000Y-70125000D01*
X88800000Y-69425000D02*
X88475000Y-69100000D01*
X89750000Y-70600000D02*
X88975000Y-70600000D01*
X86775000Y-65975000D02*
X84550000Y-65975000D01*
X87075000Y-66275000D02*
X86775000Y-65975000D01*
X87650000Y-69100000D02*
X87075000Y-68525000D01*
X88800000Y-70425000D02*
X88800000Y-69425000D01*
X85825000Y-74425000D02*
X85412500Y-74012500D01*
X89750000Y-72150000D02*
X89750000Y-72825000D01*
X88150000Y-74425000D02*
X85825000Y-74425000D01*
X85412500Y-74012500D02*
X85412500Y-72725000D01*
X89750000Y-72825000D02*
X88150000Y-74425000D01*
X137600000Y-81332500D02*
X137600000Y-82900000D01*
D60*
X139025000Y-81275000D02*
X139025000Y-82025000D01*
D62*
X137600000Y-82900000D02*
X137875000Y-83175000D01*
D60*
X140050000Y-85050000D02*
X140025000Y-85025000D01*
X140025000Y-85025000D02*
X139025000Y-85025000D01*
X139025000Y-82025000D02*
X137875000Y-83175000D01*
D61*
X138900000Y-63432500D02*
X138900000Y-66425000D01*
X110875000Y-50100000D02*
X110875000Y-51687500D01*
X138900000Y-66425000D02*
X139750000Y-67275000D01*
X141500000Y-72675000D02*
X141500000Y-69075000D01*
X111025000Y-49950000D02*
X110875000Y-50100000D01*
X137687500Y-72650000D02*
X139825000Y-72650000D01*
X139825000Y-72650000D02*
X139850000Y-72675000D01*
X142855000Y-60745000D02*
X142087500Y-60745000D01*
X142895000Y-60245000D02*
X142925000Y-60275000D01*
X142087500Y-60245000D02*
X142895000Y-60245000D01*
X142925000Y-60275000D02*
X142925000Y-60675000D01*
X142925000Y-60675000D02*
X142855000Y-60745000D01*
X92255000Y-58930000D02*
X92800000Y-58930000D01*
X87100000Y-50850000D02*
X87575000Y-50850000D01*
X87575000Y-50850000D02*
X91100000Y-54375000D01*
X91100000Y-54375000D02*
X91100000Y-57775000D01*
X91100000Y-57775000D02*
X92255000Y-58930000D01*
D60*
X92800000Y-56390000D02*
X94210000Y-56390000D01*
X94210000Y-56390000D02*
X94575000Y-56025000D01*
D61*
X115269100Y-61546300D02*
X113746300Y-61546300D01*
D63*
X112475000Y-61825000D02*
X113425000Y-61825000D01*
D61*
X113746300Y-61546300D02*
X113725000Y-61525000D01*
D63*
X113425000Y-61825000D02*
X113725000Y-61525000D01*
D60*
X103075000Y-70150000D02*
X106200000Y-70150000D01*
X106575000Y-70525000D02*
X106575000Y-71200000D01*
X106200000Y-70150000D02*
X106575000Y-70525000D01*
X106230000Y-73475000D02*
X106275000Y-73475000D01*
X106575000Y-73175000D02*
X106575000Y-71200000D01*
X106275000Y-73475000D02*
X106575000Y-73175000D01*
D63*
X135600000Y-59000000D02*
X136075000Y-58525000D01*
X134225000Y-59000000D02*
X132437200Y-59000000D01*
X132437200Y-59000000D02*
X132430900Y-59006300D01*
X139400000Y-65725000D02*
X139650000Y-65975000D01*
X136075000Y-58525000D02*
X136075000Y-57525000D01*
X139400000Y-63432500D02*
X139400000Y-65725000D01*
X134225000Y-59000000D02*
X135600000Y-59000000D01*
X137925000Y-57525000D02*
X139350000Y-57525000D01*
X134200000Y-60275000D02*
X135175000Y-60275000D01*
X139900000Y-64775000D02*
X140125000Y-65000000D01*
X132432200Y-60275000D02*
X132430900Y-60276300D01*
X134200000Y-60275000D02*
X132432200Y-60275000D01*
X135175000Y-60275000D02*
X137925000Y-57525000D01*
X139900000Y-63432500D02*
X139900000Y-64775000D01*
D62*
X148805000Y-75945000D02*
X152575000Y-72175000D01*
X140600000Y-87750000D02*
X139325000Y-87750000D01*
X133725000Y-85025000D02*
X133450000Y-85300000D01*
X146100000Y-84300000D02*
X146100000Y-75945000D01*
X137375000Y-85025000D02*
X135875000Y-85025000D01*
X142650000Y-87750000D02*
X146100000Y-84300000D01*
X146100000Y-75945000D02*
X148805000Y-75945000D01*
X140600000Y-87750000D02*
X142650000Y-87750000D01*
X135875000Y-85025000D02*
X133725000Y-85025000D01*
X152575000Y-72175000D02*
X152575000Y-70500000D01*
D60*
X79605000Y-53770000D02*
X79050000Y-54325000D01*
X78050000Y-58225000D02*
X79200000Y-58225000D01*
D62*
X86125000Y-60550000D02*
X96250000Y-60550000D01*
D60*
X100000002Y-62849999D02*
X101274999Y-62849999D01*
D62*
X93725000Y-65650000D02*
X92500001Y-64425001D01*
D60*
X140900000Y-54400000D02*
X140125000Y-53625000D01*
X79050000Y-54325000D02*
X78400000Y-54325000D01*
D63*
X140900000Y-59557500D02*
X140900000Y-58300000D01*
D61*
X141950000Y-53625000D02*
X140125000Y-53625000D01*
D62*
X143775000Y-66650000D02*
X144662500Y-65762500D01*
X85800000Y-64325000D02*
X87875000Y-64325000D01*
X84220000Y-58645000D02*
X86125000Y-60550000D01*
X143775000Y-68800000D02*
X143775000Y-66650000D01*
X80415000Y-58645000D02*
X80390000Y-58670000D01*
X148850000Y-61275000D02*
X150200000Y-62625000D01*
X152575000Y-67950000D02*
X152575000Y-69200000D01*
X135100000Y-86350000D02*
X141225000Y-86350000D01*
X94075000Y-65650000D02*
X93725000Y-65650000D01*
X141225000Y-86350000D02*
X142775000Y-84800000D01*
D60*
X98674999Y-62849999D02*
X96375000Y-60550000D01*
X140900000Y-58300000D02*
X140900000Y-54400000D01*
X93225001Y-64149999D02*
X94100001Y-64149999D01*
D62*
X142775000Y-69800000D02*
X143775000Y-68800000D01*
X122550000Y-88200000D02*
X133250000Y-88200000D01*
X92500001Y-64425001D02*
X92500001Y-64149999D01*
X121350000Y-87000000D02*
X122550000Y-88200000D01*
D61*
X145950000Y-57625000D02*
X141950000Y-53625000D01*
D60*
X101675000Y-63250000D02*
X102700000Y-63250000D01*
D62*
X150200000Y-65575000D02*
X150387500Y-65762500D01*
D61*
X146905000Y-57625000D02*
X145950000Y-57625000D01*
D62*
X150387500Y-65762500D02*
X152575000Y-67950000D01*
X87875000Y-64325000D02*
X88050001Y-64149999D01*
X86125000Y-64000000D02*
X85800000Y-64325000D01*
X150200000Y-62625000D02*
X150200000Y-65575000D01*
D61*
X147750000Y-57625000D02*
X146905000Y-57625000D01*
D60*
X79200000Y-58225000D02*
X79645000Y-58670000D01*
D63*
X141400000Y-58800000D02*
X140900000Y-58300000D01*
D62*
X121975000Y-80650000D02*
X121975000Y-81775000D01*
D61*
X146905000Y-62525000D02*
X147650000Y-62525000D01*
D63*
X141400000Y-59557500D02*
X141400000Y-58800000D01*
D60*
X77750000Y-57925000D02*
X78050000Y-58225000D01*
X96375000Y-60550000D02*
X96250000Y-60550000D01*
D62*
X88050001Y-64149999D02*
X93225001Y-64149999D01*
D61*
X147650000Y-62525000D02*
X148850000Y-61325000D01*
D60*
X100000002Y-62849999D02*
X98674999Y-62849999D01*
X101274999Y-62849999D02*
X101675000Y-63250000D01*
D62*
X144662500Y-65762500D02*
X150387500Y-65762500D01*
X133250000Y-88200000D02*
X135100000Y-86350000D01*
X84220000Y-58645000D02*
X80415000Y-58645000D01*
D60*
X148850000Y-58725000D02*
X148850000Y-61275000D01*
D62*
X121350000Y-82400000D02*
X121350000Y-87000000D01*
X142775000Y-84800000D02*
X142775000Y-69800000D01*
D60*
X77750000Y-54975000D02*
X77750000Y-57925000D01*
D62*
X86125000Y-60550000D02*
X86125000Y-64000000D01*
X121975000Y-81775000D02*
X121350000Y-82400000D01*
D60*
X78400000Y-54325000D02*
X77750000Y-54975000D01*
D61*
X148850000Y-58725000D02*
X147750000Y-57625000D01*
M02*
