M48
; DRILL file {KiCad 6.0.8-f2edbf62ab~116~ubuntu20.04.1} date Thu 06 Oct 2022 18:39:10 CEST
; FORMAT={-:-/ absolute / metric / decimal}
; #@! TF.CreationDate,2022-10-06T18:39:10+02:00
; #@! TF.GenerationSoftware,Kicad,Pcbnew,6.0.8-f2edbf62ab~116~ubuntu20.04.1
; #@! TF.FileFunction,Plated,1,2,PTH
FMAT,2
METRIC
; #@! TA.AperFunction,Plated,PTH,ViaDrill
T1C0.400
; #@! TA.AperFunction,Plated,PTH,ComponentDrill
T2C0.600
; #@! TA.AperFunction,Plated,PTH,ComponentDrill
T3C0.650
; #@! TA.AperFunction,Plated,PTH,ComponentDrill
T4C0.800
; #@! TA.AperFunction,Plated,PTH,ComponentDrill
T5C1.000
%
G90
G05
T1
X85.3Y-76.85
X86.175Y-55.1
X86.175Y-56.3
X86.175Y-57.65
X86.175Y-58.925
X88.45Y-75.275
X88.525Y-72.525
X89.15Y-61.4
X89.45Y-65.0
X92.15Y-65.5
X92.15Y-62.85
X92.65Y-67.675
X92.7Y-69.4
X94.575Y-56.025
X94.6Y-58.35
X96.3Y-62.2
X96.9Y-56.8
X97.7Y-58.075
X98.35Y-63.75
X99.4Y-66.225
X99.45Y-55.475
X99.85Y-53.65
X101.675Y-65.425
X101.95Y-70.45
X102.4Y-67.35
X102.6Y-76.275
X102.7Y-63.25
X103.3Y-52.6
X104.475Y-62.05
X106.15Y-59.775
X106.45Y-62.9
X106.725Y-63.625
X108.175Y-61.125
X108.875Y-66.425
X108.9Y-63.525
X109.45Y-64.1
X109.45Y-66.025
X109.8Y-61.55
X110.4Y-59.875
X111.025Y-49.95
X111.287Y-57.662
X113.3Y-58.425
X113.725Y-61.525
X113.95Y-54.875
X116.15Y-78.075
X118.525Y-75.725
X119.75Y-79.975
X120.85Y-64.4
X120.875Y-61.45
X121.975Y-80.65
X122.175Y-85.4
X123.55Y-74.625
X123.85Y-61.425
X123.85Y-64.4
X124.4Y-81.025
X125.337Y-54.162
X125.775Y-86.7
X134.2Y-60.275
X134.225Y-59.0
X134.25Y-66.625
X134.65Y-55.2
X135.675Y-64.5
X135.875Y-85.025
X136.325Y-87.725
X136.375Y-83.85
X139.025Y-81.275
X139.65Y-65.975
X139.75Y-67.275
X140.05Y-85.05
X140.125Y-65.0
X140.6Y-87.75
X141.225Y-81.175
X141.5Y-69.075
X141.7Y-56.45
X142.1Y-65.2
X144.25Y-61.75
X144.9Y-60.075
X145.025Y-63.575
X145.1Y-62.2
X145.75Y-54.3
T3
X127.02Y-77.95
X128.29Y-77.95
X129.56Y-77.95
X130.83Y-77.95
X132.1Y-77.95
T4
X74.875Y-66.045
X74.875Y-68.045
X74.875Y-70.045
X74.875Y-72.045
T5
X80.15Y-64.575
X80.15Y-67.115
X80.15Y-69.655
X80.15Y-72.195
X82.082Y-79.925
X82.082Y-82.425
X93.025Y-76.2
X93.025Y-78.74
X93.025Y-81.28
X99.885Y-82.6
X102.375Y-87.125
X102.425Y-82.6
X104.915Y-87.125
X104.965Y-82.6
X107.455Y-87.125
X107.505Y-82.6
X109.995Y-87.125
X110.045Y-82.6
X112.535Y-87.125
X112.585Y-82.6
X115.075Y-87.125
X115.125Y-82.6
X146.1Y-68.325
X146.1Y-70.865
X146.1Y-73.405
X146.1Y-75.945
T2
X75.595Y-51.9G85X74.995Y-51.9
G05
X75.595Y-60.54G85X74.995Y-60.54
G05
X80.025Y-51.9G85X78.925Y-51.9
G05
X80.025Y-60.54G85X78.925Y-60.54
G05
X147.27Y-55.755G85X148.37Y-55.755
G05
X147.27Y-64.395G85X148.37Y-64.395
G05
X151.7Y-55.755G85X152.3Y-55.755
G05
X151.7Y-64.395G85X152.3Y-64.395
G05
T0
M30
